<?xml version="1.0" encoding="UTF-8"?>
<svg version="1.1" xmlns="http://www.w3.org/2000/svg" width="217" height="77">
<path d="M0 0 C1.5778125 -0.0309375 1.5778125 -0.0309375 3.1875 -0.0625 C6 0 6 0 8 2 C8.6328125 4.3828125 8.6328125 4.3828125 9.125 7.125 C9.29257813 8.03507812 9.46015625 8.94515625 9.6328125 9.8828125 C9.75398438 10.58148438 9.87515625 11.28015625 10 12 C10.66 12 11.32 12 12 12 C12.66 9.69 13.32 7.38 14 5 C14.66 5 15.32 5 16 5 C16.33 3.35 16.66 1.7 17 0 C17.99 0 18.98 0 20 0 C20 2.64 20 5.28 20 8 C19.34 8.33 18.68 8.66 18 9 C17.05766495 10.99032585 16.19285188 13.01787029 15.375 15.0625 C14.70597656 16.71958984 14.70597656 16.71958984 14.0234375 18.41015625 C13.68570313 19.26480469 13.34796875 20.11945312 13 21 C11.02 20.67 9.04 20.34 7 20 C6.7525 18.845 6.505 17.69 6.25 16.5 C5.28186435 12.55730263 3.74415127 9.21738663 1.8046875 5.6640625 C1 4 1 4 1 2 C-1.40247776 3.95255188 -1.40247776 3.95255188 -1.16015625 7.58984375 C-1.13753005 9.03925145 -1.10455466 10.48852587 -1.0625 11.9375 C-0.87871287 19.63613861 -0.87871287 19.63613861 -2 23 C-3.953125 22.4765625 -3.953125 22.4765625 -6 21 C-6.46709352 18.33517159 -6.69572473 16.04929034 -6.75 13.375 C-6.77964844 12.66859375 -6.80929688 11.9621875 -6.83984375 11.234375 C-6.91055357 9.49019953 -6.95754035 7.74509173 -7 6 C-9.35367713 5.3121764 -9.35367713 5.3121764 -12 5 C-12.99 5.66 -13.98 6.32 -15 7 C-15.38394667 9.77262255 -15.60342248 12.34323528 -15.6875 15.125 C-15.72166016 15.87910156 -15.75582031 16.63320313 -15.79101562 17.41015625 C-15.87354278 19.27291201 -15.93844711 21.13643326 -16 23 C-17.32 22.67 -18.64 22.34 -20 22 C-20 14.74 -20 7.48 -20 0 C-12.98780687 -1.16869885 -6.94566798 -1.50176605 0 0 Z " fill="#B78A6F" transform="translate(77,32)"/>
<path d="M0 0 C0 0.99 0 1.98 0 3 C1.98 3 3.96 3 6 3 C5.01 3.33 4.02 3.66 3 4 C3.1546875 4.52722656 3.309375 5.05445313 3.46875 5.59765625 C4.59852821 10.70657978 4.79932844 15.83057265 4 21 C1.41341861 24.6855047 -2.02195881 25.69316355 -6.1875 27 C-9.61622554 27 -10.39914892 26.1131915 -13 24 C-16.15118325 23.27954633 -16.15118325 23.27954633 -19 23 C-18.01 22.67 -17.02 22.34 -16 22 C-16.350625 21.01 -16.70125 20.02 -17.0625 19 C-18.29460215 14.58943142 -18.08137078 11.46966588 -17 7 C-12.14529288 0.79676312 -7.65270412 -0.30010604 0 0 Z M-11.3125 7.4375 C-13.17726674 10.26918283 -13.20672932 10.95168416 -12.875 14.1875 C-12.58625 15.445625 -12.2975 16.70375 -12 18 C-9.2201184 19.3899408 -7.0813674 19.18488204 -4 19 C-1.69769234 18.10168984 -1.69769234 18.10168984 0 17 C0 14.69 0 12.38 0 10 C-1.65 10.33 -3.3 10.66 -5 11 C-5 9.68 -5 8.36 -5 7 C-7.84317679 5.78149566 -8.62669739 5.76794702 -11.3125 7.4375 Z " fill="#EDD3BF" transform="translate(49,30)"/>
<path d="M0 0 C1.65234375 1.08984375 1.65234375 1.08984375 3.96484375 3.02734375 C3.63484375 4.34734375 3.30484375 5.66734375 2.96484375 7.02734375 C1.64484375 7.35734375 0.32484375 7.68734375 -1.03515625 8.02734375 C-1.03515625 7.03734375 -1.03515625 6.04734375 -1.03515625 5.02734375 C-6.50568925 2.20919039 -11.32355826 3.42809631 -17.03515625 5.02734375 C-17.74683611 10.09806276 -18.14177951 14.90942733 -18.03515625 20.02734375 C-17.37515625 20.02734375 -16.71515625 20.02734375 -16.03515625 20.02734375 C-16.03515625 20.68734375 -16.03515625 21.34734375 -16.03515625 22.02734375 C-11.08515625 22.02734375 -6.13515625 22.02734375 -1.03515625 22.02734375 C-1.03515625 21.36734375 -1.03515625 20.70734375 -1.03515625 20.02734375 C-0.04515625 20.02734375 0.94484375 20.02734375 1.96484375 20.02734375 C3.31906055 23.68372912 2.47980599 25.54061767 0.96484375 29.02734375 C-14.87023069 29.62033544 -14.87023069 29.62033544 -20.03515625 26.02734375 C-23.92318344 21.15855294 -24.46515709 16.20539776 -24.37109375 10.12890625 C-24.03515625 8.02734375 -24.03515625 8.02734375 -22.03515625 6.02734375 C-21.89851563 5.37378906 -21.761875 4.72023438 -21.62109375 4.046875 C-21.03515625 2.02734375 -21.03515625 2.02734375 -19.57421875 0.7265625 C-13.28317656 -2.59870266 -6.56449678 -3.13735067 0 0 Z " fill="#B48670" transform="translate(25.03515625,25.97265625)"/>
<path d="M0 0 C0.79148438 -0.01417969 1.58296875 -0.02835938 2.3984375 -0.04296875 C4.625 0.1875 4.625 0.1875 7.625 2.1875 C7.625 1.5275 7.625 0.8675 7.625 0.1875 C8.945 0.5175 10.265 0.8475 11.625 1.1875 C11.7125127 4.41649426 11.76556146 7.64518116 11.8125 10.875 C11.83763672 11.78701172 11.86277344 12.69902344 11.88867188 13.63867188 C11.89833984 14.52490234 11.90800781 15.41113281 11.91796875 16.32421875 C11.9336792 17.13592529 11.94938965 17.94763184 11.96557617 18.78393555 C11.625 21.1875 11.625 21.1875 8.625 26.1875 C2.685 25.1975 2.685 25.1975 -3.375 24.1875 C-3.705 23.1975 -4.035 22.2075 -4.375 21.1875 C-5.014375 20.878125 -5.65375 20.56875 -6.3125 20.25 C-8.91812987 18.90770582 -9.28462911 17.87076055 -10.375 15.1875 C-10.89718363 12.11486159 -10.9331414 9.25727772 -10.375 6.1875 C-7.9375 3.1875 -7.9375 3.1875 -5.375 1.1875 C-3.79539731 -0.39210269 -2.17963184 0.01763456 0 0 Z M-5.3125 5.25 C-6.9707539 8.27387476 -6.67644019 10.81136983 -6.375 14.1875 C-4.76531485 17.26549588 -4.76531485 17.26549588 -2.53515625 17.8046875 C1.68878641 18.40977321 1.68878641 18.40977321 5.625 17.125 C7.08922686 14.28806045 7.00359635 12.34246957 6.625 9.1875 C5.7405391 6.24042754 5.7405391 6.24042754 3.625 4.1875 C0.14263658 3.69001951 -2.18323783 3.533953 -5.3125 5.25 Z M5.625 20.1875 C5.955 20.8475 6.285 21.5075 6.625 22.1875 C6.955 21.5275 7.285 20.8675 7.625 20.1875 C6.965 20.1875 6.305 20.1875 5.625 20.1875 Z " fill="#DEE9EB" transform="translate(162.375,31.8125)"/>
<path d="M0 0 C1.875 1.3125 1.875 1.3125 3 3 C3 4.32 3 5.64 3 7 C1.68 7 0.36 7 -1 7 C-1 6.34 -1 5.68 -1 5 C-2.98 5 -4.96 5 -7 5 C-5.30896477 8.28812406 -3.83869198 10.13168002 -0.9375 12.5 C2.05392639 15.0458948 3.16987214 16.21830639 4 20 C3.70647502 22.9939548 3.34525472 25.30949055 2 28 C1.9603287 29.66619446 1.95615553 31.33391013 2 33 C-1.39830361 33.77675511 -4.51119051 34.19382275 -8 34 C-9 33 -9 33 -9.0625 30.4375 C-9.041875 29.633125 -9.02125 28.82875 -9 28 C-9.66 28 -10.32 28 -11 28 C-12.0625 25.625 -12.0625 25.625 -13 23 C-12.67 22.34 -12.34 21.68 -12 21 C-10.68 21 -9.36 21 -8 21 C-7.67 21.66 -7.34 22.32 -7 23 C-3.97065509 23.65772428 -3.97065509 23.65772428 -1 24 C-1 22.35 -1 20.7 -1 19 C-1.59425781 18.90074219 -2.18851563 18.80148438 -2.80078125 18.69921875 C-6.6989225 17.45984524 -8.77989183 14.30639962 -11 11 C-12.125 7.875 -12.125 7.875 -12 5 C-8.44972686 -0.50904453 -6.33226611 -1.55075905 0 0 Z " fill="#778289" transform="translate(189,25)"/>
<path d="M0 0 C2 3 2 3 1.625 5.1875 C1.41875 5.785625 1.2125 6.38375 1 7 C-0.32 7 -1.64 7 -3 7 C-3 6.34 -3 5.68 -3 5 C-4.32 5.33 -5.64 5.66 -7 6 C-7 7.32 -7 8.64 -7 10 C-6.278125 10.185625 -5.55625 10.37125 -4.8125 10.5625 C-0.94162246 12.54094852 1.19220295 15.04992362 3 19 C3.06753785 22.98473297 2.57991892 25.09532648 0.4375 28.4375 C-3.14763316 30.73566228 -5.79077755 30.28061483 -10 30 C-10.66 28.68 -11.32 27.36 -12 26 C-12.66 26 -13.32 26 -14 26 C-14 24.35 -14 22.7 -14 21 C-12.68 21 -11.36 21 -10 21 C-9.67 21.66 -9.34 22.32 -9 23 C-7.35 23 -5.7 23 -4 23 C-3.67 22.34 -3.34 21.68 -3 21 C-4.32 20.67 -5.64 20.34 -7 20 C-7.0825 19.2575 -7.165 18.515 -7.25 17.75 C-8.15282452 14.43964342 -9.56970107 13.35665351 -12 11 C-13.5 8.625 -13.5 8.625 -14 6 C-10.42710465 -0.88113178 -7.3946559 -1.61337947 0 0 Z " fill="#A6BBBB" transform="translate(120,25)"/>
<path d="M0 0 C0.99 0.33 1.98 0.66 3 1 C3 8.59 3 16.18 3 24 C1.68 24 0.36 24 -1 24 C-1 23.34 -1 22.68 -1 22 C-1.515625 22.33 -2.03125 22.66 -2.5625 23 C-5.9260416 24.3799145 -8.39238959 24.37974846 -12 24 C-15.28268978 22.10333479 -16.68179286 20.63641428 -18.375 17.25 C-19.43989524 11.71254476 -19.15441622 7.78748317 -16.0625 3 C-11.7083363 0.15646452 -8.0493435 0.5978399 -3 1 C-2.34 1 -1.68 1 -1 1 C-0.67 0.67 -0.34 0.34 0 0 Z M-14 7.1875 C-15.06450326 10.18141543 -15.64022584 11.87889904 -15 15 C-13.02938694 17.54366876 -13.02938694 17.54366876 -10 19 C-6.33025482 19.0951654 -6.33025482 19.0951654 -3 18 C-0.67420899 14.51131349 -0.58134543 13.10281481 -1 9 C-1.83333333 6.5 -1.83333333 6.5 -4 5 C-8.15630595 4.07349013 -11.04715839 3.95782949 -14 7.1875 Z " fill="#586D6B" transform="translate(145,31)"/>
<path d="M0 0 C1.670625 0.061875 1.670625 0.061875 3.375 0.125 C3.375 0.785 3.375 1.445 3.375 2.125 C2.385 2.62 2.385 2.62 1.375 3.125 C2.035 3.74375 2.695 4.3625 3.375 5 C5.375 7.125 5.375 7.125 5.375 9.125 C6.035 9.125 6.695 9.125 7.375 9.125 C7.54181109 6.20847826 7.54181109 6.20847826 7.375 3.125 C6.715 2.465 6.055 1.805 5.375 1.125 C8.345 1.62 8.345 1.62 11.375 2.125 C13.16574734 8.02393243 13.45860869 12.05679132 12.375 18.125 C11.055 17.795 9.735 17.465 8.375 17.125 C8.375 16.135 8.375 15.145 8.375 14.125 C7.055 13.795 5.735 13.465 4.375 13.125 C4.045 14.775 3.715 16.425 3.375 18.125 C2.055 18.125 0.735 18.125 -0.625 18.125 C-0.625 14.495 -0.625 10.865 -0.625 7.125 C-1.285 7.125 -1.945 7.125 -2.625 7.125 C-2.625 10.755 -2.625 14.385 -2.625 18.125 C-3.945 18.125 -5.265 18.125 -6.625 18.125 C-6.625 14.495 -6.625 10.865 -6.625 7.125 C-7.615 7.125 -8.605 7.125 -9.625 7.125 C-9.625 6.135 -9.625 5.145 -9.625 4.125 C-9.00625 3.83625 -8.3875 3.5475 -7.75 3.25 C-1.72336066 0.05942623 -1.72336066 0.05942623 0 0 Z " fill="#B3BEBE" transform="translate(203.625,14.875)"/>
<path d="M0 0 C0.99 0.66 1.98 1.32 3 2 C3.34057617 3.87939453 3.34057617 3.87939453 3.29296875 6.1328125 C3.28330078 6.93847656 3.27363281 7.74414062 3.26367188 8.57421875 C3.23853516 9.41597656 3.21339844 10.25773437 3.1875 11.125 C3.16719727 12.39923828 3.16719727 12.39923828 3.14648438 13.69921875 C3.11108219 15.79974837 3.05727401 17.89995293 3 20 C2.01 20 1.02 20 0 20 C-0.33 15.05 -0.66 10.1 -1 5 C-5.88214887 3.41074435 -5.88214887 3.41074435 -9 6 C-9.38394667 8.77262255 -9.60342248 11.34323528 -9.6875 14.125 C-9.72166016 14.87910156 -9.75582031 15.63320313 -9.79101562 16.41015625 C-9.87354278 18.27291201 -9.93844711 20.13643326 -10 22 C-11.32 21.67 -12.64 21.34 -14 21 C-14 14.07 -14 7.14 -14 0 C-13.34 0 -12.68 0 -12 0 C-12 0.66 -12 1.32 -12 2 C-11.34 2 -10.68 2 -10 2 C-10 1.34 -10 0.68 -10 0 C-6.25105057 -1.24964981 -3.84864723 -0.75598428 0 0 Z " fill="#B8937E" transform="translate(71,33)"/>
<path d="M0 0 C0 0.99 0 1.98 0 3 C1.98 3 3.96 3 6 3 C5.01 3.33 4.02 3.66 3 4 C3 7.96 3 11.92 3 16 C2.34 16 1.68 16 1 16 C0.896875 16.639375 0.79375 17.27875 0.6875 17.9375 C0.460625 18.618125 0.23375 19.29875 0 20 C-0.99 20.33 -1.98 20.66 -3 21 C-2.67 20.484375 -2.34 19.96875 -2 19.4375 C-0.32972664 15.3662087 -0.36039343 11.66297707 -1.9375 7.5625 C-5.28106957 5.02949275 -8.95279637 5.69455067 -13 6 C-13 6.66 -13 7.32 -13 8 C-13.66 8 -14.32 8 -15 8 C-14.71788123 9.6266848 -14.42397625 11.25132896 -14.125 12.875 C-13.88136719 14.23238281 -13.88136719 14.23238281 -13.6328125 15.6171875 C-13.16955297 18.16505988 -13.16955297 18.16505988 -11 20 C-8.67724823 20.40047444 -6.34260643 20.7397104 -4 21 C-4 21.33 -4 21.66 -4 22 C-11.86554622 22.45378151 -11.86554622 22.45378151 -15.5 21 C-17.80512015 17.92650646 -18.06356508 14.72915158 -18 11 C-17.28661575 7.56278497 -16.71492731 5.69027465 -14.1875 3.25 C-9.2716498 0.44094275 -5.70935165 -0.22389614 0 0 Z " fill="#B99884" transform="translate(49,30)"/>
<path d="M0 0 C1.4540625 0.0309375 1.4540625 0.0309375 2.9375 0.0625 C0.10354069 2.39039515 -1.35761572 3.13627893 -5.0625 4.0625 C-5.0625 8.3525 -5.0625 12.6425 -5.0625 17.0625 C-2.6803125 17.18625 -2.6803125 17.18625 -0.25 17.3125 C1.08998047 17.38210937 1.08998047 17.38210937 2.45703125 17.453125 C5.05383746 17.28563197 5.05383746 17.28563197 6.77734375 15.3046875 C8.69365804 11.60110365 7.7180184 9.09517838 6.9375 5.0625 C6.6075 4.4025 6.2775 3.7425 5.9375 3.0625 C7.2575 3.0625 8.5775 3.0625 9.9375 3.0625 C10.84163673 6.89974172 11.04326898 10.43752274 11 14.375 C10.99097656 15.44363281 10.98195312 16.51226562 10.97265625 17.61328125 C10.96105469 18.42152344 10.94945312 19.22976562 10.9375 20.0625 C10.133125 20.041875 9.32875 20.02125 8.5 20 C6.00395115 19.76616379 6.00395115 19.76616379 4.9375 21.0625 C-4.72771005 21.28287938 -4.72771005 21.28287938 -8.25 18.0625 C-9.36072878 13.96134759 -9.90778395 10.26607423 -9.0625 6.0625 C-6.625 3.0625 -6.625 3.0625 -4.0625 1.0625 C-3.0625 0.0625 -3.0625 0.0625 0 0 Z " fill="#677572" transform="translate(161.0625,31.9375)"/>
<path d="M0 0 C1.6328125 1.1015625 1.6328125 1.1015625 3.9453125 3.0390625 C3.6153125 4.3590625 3.2853125 5.6790625 2.9453125 7.0390625 C1.6253125 7.3690625 0.3053125 7.6990625 -1.0546875 8.0390625 C-1.0546875 7.0490625 -1.0546875 6.0590625 -1.0546875 5.0390625 C-6.5252205 2.22090914 -11.34308951 3.43981506 -17.0546875 5.0390625 C-17.76636736 10.10978151 -18.16131076 14.92114608 -18.0546875 20.0390625 C-17.3946875 20.0390625 -16.7346875 20.0390625 -16.0546875 20.0390625 C-16.0546875 20.6990625 -16.0546875 21.3590625 -16.0546875 22.0390625 C-12.7546875 22.3690625 -9.4546875 22.6990625 -6.0546875 23.0390625 C-6.0546875 23.3690625 -6.0546875 23.6990625 -6.0546875 24.0390625 C-7.49208263 24.06618316 -8.92962613 24.08551317 -10.3671875 24.1015625 C-11.56794922 24.11896484 -11.56794922 24.11896484 -12.79296875 24.13671875 C-15.0546875 24.0390625 -15.0546875 24.0390625 -18.0546875 23.0390625 C-20.88520522 18.84570292 -21.63455232 15.11210155 -21.484375 10.15625 C-20.78610951 6.71570548 -18.73186082 5.14255582 -16.0546875 3.0390625 C-15.3946875 2.3790625 -14.7346875 1.7190625 -14.0546875 1.0390625 C-14.7146875 0.3790625 -15.3746875 -0.2809375 -16.0546875 -0.9609375 C-11.00590114 -2.64386629 -4.85974555 -2.27280875 0 0 Z " fill="#D2BBA5" transform="translate(25.0546875,25.9609375)"/>
<path d="M0 0 C2 3 2 3 1.625 5.1875 C1.41875 5.785625 1.2125 6.38375 1 7 C-0.32 7 -1.64 7 -3 7 C-3 6.34 -3 5.68 -3 5 C-4.32 5.33 -5.64 5.66 -7 6 C-5.73053486 10.82442184 -5.73053486 10.82442184 -2 14 C-2 14.66 -2 15.32 -2 16 C-6.02511753 15.38075115 -8.82648821 13.48361793 -12 11 C-13.625 8.625 -13.625 8.625 -14 6 C-10.42710465 -0.88113178 -7.3946559 -1.61337947 0 0 Z " fill="#3B5654" transform="translate(120,25)"/>
<path d="M0 0 C0.87785156 -0.00515625 1.75570312 -0.0103125 2.66015625 -0.015625 C4.9375 0.25 4.9375 0.25 6.9375 2.25 C7.0625 5.375 7.0625 5.375 6.9375 8.25 C6.6075 7.755 6.2775 7.26 5.9375 6.75 C2.76177253 4.36820439 -0.16496066 5.05831774 -4.0625 5.25 C-5.91524014 8.37649899 -6.43448336 10.62316225 -6.0625 14.25 C-5.0725 15.735 -5.0725 15.735 -4.0625 17.25 C-5.3825 16.92 -6.7025 16.59 -8.0625 16.25 C-7.7325 17.57 -7.4025 18.89 -7.0625 20.25 C-10.49995955 17.32351416 -10.77817644 14.89399337 -11.1328125 10.5390625 C-11.02934744 7.17070002 -9.9429121 5.00346057 -8.0625 2.25 C-4.81167327 0.08278218 -3.77017847 -0.02221018 0 0 Z " fill="#4C555A" transform="translate(137.0625,31.75)"/>
<path d="M0 0 C2.475 0.495 2.475 0.495 5 1 C5 7.93 5 14.86 5 22 C3.68 22.33 2.36 22.66 1 23 C-0.2263757 20.54724859 -0.11415314 18.9494219 -0.09765625 16.2109375 C-0.09443359 15.26992188 -0.09121094 14.32890625 -0.08789062 13.359375 C-0.07951172 12.37453125 -0.07113281 11.3896875 -0.0625 10.375 C-0.05798828 9.38242187 -0.05347656 8.38984375 -0.04882812 7.3671875 C-0.03702145 4.9113984 -0.020554 2.45572896 0 0 Z " fill="#BC9A8B" transform="translate(100,32)"/>
<path d="M0 0 C1.670625 0.061875 1.670625 0.061875 3.375 0.125 C3.375 0.785 3.375 1.445 3.375 2.125 C2.385 2.62 2.385 2.62 1.375 3.125 C2.695 4.445 4.015 5.765 5.375 7.125 C5.045 7.785 4.715 8.445 4.375 9.125 C3.715 7.805 3.055 6.485 2.375 5.125 C0.725 5.785 -0.925 6.445 -2.625 7.125 C-2.625 10.755 -2.625 14.385 -2.625 18.125 C-3.945 18.125 -5.265 18.125 -6.625 18.125 C-6.625 14.495 -6.625 10.865 -6.625 7.125 C-7.615 7.125 -8.605 7.125 -9.625 7.125 C-9.625 6.135 -9.625 5.145 -9.625 4.125 C-9.00625 3.83625 -8.3875 3.5475 -7.75 3.25 C-1.72336066 0.05942623 -1.72336066 0.05942623 0 0 Z " fill="#C7CECF" transform="translate(203.625,14.875)"/>
<path d="M0 0 C1.875 1.3125 1.875 1.3125 3 3 C3 4.32 3 5.64 3 7 C1.68 7 0.36 7 -1 7 C-1 6.34 -1 5.68 -1 5 C-2.98 5 -4.96 5 -7 5 C-4.68116787 9.50884026 -1.93548431 11.93906776 2 15 C1.67 15.66 1.34 16.32 1 17 C-7.61847086 11.27176382 -7.61847086 11.27176382 -9.125 6.25 C-9 3 -9 3 -8 0 C-5.06317146 -1.46841427 -3.13175678 -0.76696084 0 0 Z " fill="#4F5E5B" transform="translate(189,25)"/>
<path d="M0 0 C1.26787979 0.54337705 2.5162163 1.13310815 3.75 1.75 C3.75 1.09 3.75 0.43 3.75 -0.25 C4.41 -0.25 5.07 -0.25 5.75 -0.25 C5.75 2.39 5.75 5.03 5.75 7.75 C4.76 6.43 3.77 5.11 2.75 3.75 C2.915 4.306875 3.08 4.86375 3.25 5.4375 C3.79041351 7.93691249 3.82082065 10.20045662 3.75 12.75 C1.75 8.75 1.75 8.75 -0.25 4.75 C-3.66656024 4.58322718 -3.66656024 4.58322718 -7.25 4.75 C-9.63004065 6.68501064 -9.63004065 6.68501064 -9.4375 10.1875 C-9.41031917 13.71225747 -9.41031917 13.71225747 -8.25 16.75 C-8.91 16.75 -9.57 16.75 -10.25 16.75 C-11.41343227 14.42313547 -11.44895988 12.90278587 -11.5 10.3125 C-11.53867188 9.13880859 -11.53867188 9.13880859 -11.578125 7.94140625 C-11.16894715 5.20868274 -10.38602613 4.44581465 -8.25 2.75 C-3.06270903 -0.340301 -3.06270903 -0.340301 0 0 Z " fill="#93A7A7" transform="translate(166.25,32.25)"/>
<path d="M0 0 C0.66 0 1.32 0 2 0 C2.66 1.65 3.32 3.3 4 5 C6.54232342 5.08152344 9.08199202 5.14073716 11.625 5.1875 C12.33785156 5.21263672 13.05070313 5.23777344 13.78515625 5.26367188 C18.62276416 5.33024446 21.74738338 4.55559453 26 2 C25.34 4.31 24.68 6.62 24 9 C8.37754432 9.58502955 8.37754432 9.58502955 3 6 C1.0625 2.8125 1.0625 2.8125 0 0 Z " fill="#E2C8B7" transform="translate(2,46)"/>
<path d="M0 0 C0.33 0 0.66 0 1 0 C1 7.59 1 15.18 1 23 C-0.32 23 -1.64 23 -3 23 C-3 22.34 -3 21.68 -3 21 C-3.515625 21.33 -4.03125 21.66 -4.5625 22 C-7.87219404 23.3578232 -10.45640517 23.32214498 -14 23 C-15.71484375 21.48046875 -15.71484375 21.48046875 -17 20 C-14.72979256 19.80506805 -12.45879711 19.61929582 -10.1875 19.4375 C-8.29064453 19.28087891 -8.29064453 19.28087891 -6.35546875 19.12109375 C-3 19 -3 19 0 20 C0 13.4 0 6.8 0 0 Z " fill="#DBEAE9" transform="translate(147,32)"/>
<path d="M0 0 C-0.99 1.485 -0.99 1.485 -2 3 C-2.11734925 5.7018949 -2.14163994 8.30444565 -2.0625 11 C-1.87904564 18.63713693 -1.87904564 18.63713693 -3 22 C-3.99 21.67 -4.98 21.34 -6 21 C-5.34 20.67 -4.68 20.34 -4 20 C-4 14.06 -4 8.12 -4 2 C-8.7040631 0.06572816 -8.7040631 0.06572816 -13.3125 -0.125 C-14.529375 -0.08375 -15.74625 -0.0425 -17 0 C-17 0.66 -17 1.32 -17 2 C-17.66 2 -18.32 2 -19 2 C-19 1.34 -19 0.68 -19 0 C-19.66 -0.33 -20.32 -0.66 -21 -1 C-13.71298897 -2.49477149 -6.97360465 -2.86096601 0 0 Z " fill="#F8EEE4" transform="translate(78,33)"/>
<path d="M0 0 C0.99 0 1.98 0 3 0 C3 2.64 3 5.28 3 8 C2.01 8.495 2.01 8.495 1 9 C0.05766495 10.99032585 -0.80714812 13.01787029 -1.625 15.0625 C-2.07101563 16.16722656 -2.51703125 17.27195312 -2.9765625 18.41015625 C-3.48316406 19.69212891 -3.48316406 19.69212891 -4 21 C-5.98 20.67 -7.96 20.34 -10 20 C-10.33 17.69 -10.66 15.38 -11 13 C-10.34 13 -9.68 13 -9 13 C-8.67 14.98 -8.34 16.96 -8 19 C-7.34 19 -6.68 19 -6 19 C-5.67 17.68 -5.34 16.36 -5 15 C-4.34 15 -3.68 15 -3 15 C-2.87625 13.9275 -2.7525 12.855 -2.625 11.75 C-2.08909822 8.5345893 -1.44598512 6.79557123 0 4 C0 2.68 0 1.36 0 0 Z " fill="#EED9C2" transform="translate(94,32)"/>
<path d="M0 0 C0.99 0.33 1.98 0.66 3 1 C1.68 1.33 0.36 1.66 -1 2 C-1.71167986 7.07071901 -2.10662326 11.88208358 -2 17 C-1.34 17 -0.68 17 0 17 C0 17.66 0 18.32 0 19 C3.3 19.33 6.6 19.66 10 20 C10 20.33 10 20.66 10 21 C8.56260487 21.02712066 7.12506137 21.04645067 5.6875 21.0625 C4.48673828 21.07990234 4.48673828 21.07990234 3.26171875 21.09765625 C1 21 1 21 -2 20 C-4.82982879 15.80766106 -5.57136989 12.07818593 -5.4375 7.125 C-4.73371015 3.70659215 -2.67219465 2.07095086 0 0 Z " fill="#F7E0D0" transform="translate(9,29)"/>
<path d="M0 0 C3.4375 0.8125 3.4375 0.8125 5.4375 3.8125 C5.0625 6 5.0625 6 4.4375 7.8125 C3.1175 7.8125 1.7975 7.8125 0.4375 7.8125 C0.4375 7.1525 0.4375 6.4925 0.4375 5.8125 C-0.8825 6.1425 -2.2025 6.4725 -3.5625 6.8125 C-3.5625 8.1325 -3.5625 9.4525 -3.5625 10.8125 C-4.2225 10.8125 -4.8825 10.8125 -5.5625 10.8125 C-6.6875 5.0625 -6.6875 5.0625 -5.5625 2.8125 C-1.84650809 2.61163557 -0.79041555 2.6605563 2.4375 4.8125 C2.1075 4.1525 1.7775 3.4925 1.4375 2.8125 C-0.45783342 2.34726937 -0.45783342 2.34726937 -2.625 2.1875 C-3.924375 2.06375 -5.22375 1.94 -6.5625 1.8125 C-3.5625 -0.1875 -3.5625 -0.1875 0 0 Z " fill="#B0C2C1" transform="translate(116.5625,24.1875)"/>
<path d="M0 0 C1.9375 1.3125 1.9375 1.3125 3 3 C3 3.99 3 4.98 3 6 C1.68 6 0.36 6 -1 6 C-1 4.68 -1 3.36 -1 2 C-4.93075644 2.57452746 -4.93075644 2.57452746 -8 5 C-8.24212873 6.98128508 -8.24212873 6.98128508 -8.125 9.125 C-8.063125 11.043125 -8.063125 11.043125 -8 13 C-7.34 13.33 -6.68 13.66 -6 14 C-7.9375 13.625 -7.9375 13.625 -10 13 C-11.60725635 9.78548731 -11.05748185 6.56387464 -11 3 C-10.34 3 -9.68 3 -9 3 C-9 2.34 -9 1.68 -9 1 C-5.95016004 -0.52491998 -3.3576631 -0.23562548 0 0 Z " fill="#F7E5D3" transform="translate(45,35)"/>
<path d="M0 0 C0.66 0 1.32 0 2 0 C2.66 0.99 3.32 1.98 4 3 C4.99 3.33 5.98 3.66 7 4 C7 4.99 7 5.98 7 7 C6.01 7 5.02 7 4 7 C3.67 8.98 3.34 10.96 3 13 C1.68 13 0.36 13 -1 13 C-1.02686553 11.02090602 -1.04633375 9.04171029 -1.0625 7.0625 C-1.07410156 5.96035156 -1.08570313 4.85820312 -1.09765625 3.72265625 C-1 1 -1 1 0 0 Z " fill="#9CA8A8" transform="translate(204,20)"/>
<path d="M0 0 C0 0.66 0 1.32 0 2 C-0.66 2 -1.32 2 -2 2 C-2 2.66 -2 3.32 -2 4 C-2.66 4 -3.32 4 -4 4 C-3.71788123 5.6266848 -3.42397625 7.25132896 -3.125 8.875 C-2.88136719 10.23238281 -2.88136719 10.23238281 -2.6328125 11.6171875 C-2.16955297 14.16505988 -2.16955297 14.16505988 0 16 C2.32275177 16.40047444 4.65739357 16.7397104 7 17 C7 17.33 7 17.66 7 18 C-0.86554622 18.45378151 -0.86554622 18.45378151 -4.5 17 C-6.80149462 13.93134051 -7.07733507 10.7261444 -7 7 C-6.1875 3.5625 -6.1875 3.5625 -5 1 C-3 0 -3 0 0 0 Z " fill="#AF8A73" transform="translate(38,34)"/>
<path d="M0 0 C0.66 0.33 1.32 0.66 2 1 C2 2.98 2 4.96 2 7 C-1.40562852 7.77842938 -4.50765756 8.09978121 -8 8 C-8.33 6.35 -8.66 4.7 -9 3 C-6.69 3 -4.38 3 -2 3 C-2 2.34 -2 1.68 -2 1 C-1.34 0.67 -0.68 0.34 0 0 Z " fill="#F9FDFD" transform="translate(189,51)"/>
<path d="M0 0 C2.31 0 4.62 0 7 0 C7.33 0.66 7.66 1.32 8 2 C6.2984375 2.2165625 6.2984375 2.2165625 4.5625 2.4375 C1.19222799 2.61171478 1.19222799 2.61171478 0 4 C-0.23678716 6.69235776 -0.42198025 9.36498156 -0.5625 12.0625 C-0.60568359 12.82111328 -0.64886719 13.57972656 -0.69335938 14.36132812 C-0.79973633 16.24065438 -0.90039934 18.12030244 -1 20 C-2.32 19.67 -3.64 19.34 -5 19 C-5 18.34 -5 17.68 -5 17 C-4.34 17 -3.68 17 -3 17 C-3 12.38 -3 7.76 -3 3 C-2.34 3 -1.68 3 -1 3 C-0.67 2.01 -0.34 1.02 0 0 Z " fill="#F0DECA" transform="translate(62,35)"/>
<path d="M0 0 C1.5625 1.0625 1.5625 1.0625 3 3 C2.93089046 6.80102443 2.49736105 9.22411676 0.4375 12.4375 C-3.24698993 14.79935252 -5.66688239 14.48922296 -10 14 C-10.66 13.01 -11.32 12.02 -12 11 C-8.37 11 -4.74 11 -1 11 C-0.835 9.55625 -0.67 8.1125 -0.5 6.625 C-0.4071875 5.81289063 -0.314375 5.00078125 -0.21875 4.1640625 C0.03352351 2.03087175 0.03352351 2.03087175 0 0 Z " fill="#C8D1D2" transform="translate(120,41)"/>
<path d="M0 0 C0.66 0.33 1.32 0.66 2 1 C2 7.93 2 14.86 2 22 C0.68 22.33 -0.64 22.66 -2 23 C-2 22.34 -2 21.68 -2 21 C-1.34 21 -0.68 21 0 21 C0 14.07 0 7.14 0 0 Z " fill="#F5E4D7" transform="translate(103,32)"/>
<path d="M0 0 C1.43902893 0.08032857 2.87760191 0.17713226 4.3125 0.3125 C4.3125 0.6425 4.3125 0.9725 4.3125 1.3125 C2.641875 1.43625 2.641875 1.43625 0.9375 1.5625 C-2.66551306 1.91223089 -2.66551306 1.91223089 -4.125 4.0625 C-4.76782235 6.63378939 -4.95833106 8.67189721 -4.6875 11.3125 C-3.6975 12.7975 -3.6975 12.7975 -2.6875 14.3125 C-4.0075 13.9825 -5.3275 13.6525 -6.6875 13.3125 C-6.3575 14.6325 -6.0275 15.9525 -5.6875 17.3125 C-7.1953125 16.0859375 -7.1953125 16.0859375 -8.6875 14.3125 C-9.04514125 10.16075157 -7.96876895 6.17388616 -6.6875 2.25 C-4.2307421 -0.12998422 -3.33408748 0.02093619 0 0 Z " fill="#C8D1D6" transform="translate(135.6875,34.6875)"/>
<path d="M0 0 C1.32 0 2.64 0 4 0 C4.33 0.66 4.66 1.32 5 2 C7.02463255 2.65213292 7.02463255 2.65213292 9 3 C9 3.66 9 4.32 9 5 C7.68 5.33 6.36 5.66 5 6 C6.65 6.33 8.3 6.66 10 7 C10 7.33 10 7.66 10 8 C3.52369077 8.36658354 3.52369077 8.36658354 1.125 6.6875 C0 5 0 5 -1 2 C-0.67 1.34 -0.34 0.68 0 0 Z " fill="#96A0A2" transform="translate(177,46)"/>
<path d="M0 0 C1.4540625 0.0309375 1.4540625 0.0309375 2.9375 0.0625 C0.31551226 2.21627564 -1.70654172 3.46322174 -5.0625 4.0625 C-5.0625 4.7225 -5.0625 5.3825 -5.0625 6.0625 C-5.7225 6.0625 -6.3825 6.0625 -7.0625 6.0625 C-7.0625 9.3625 -7.0625 12.6625 -7.0625 16.0625 C-7.7225 15.7325 -8.3825 15.4025 -9.0625 15.0625 C-9.84984859 7.03154441 -9.84984859 7.03154441 -6.625 3.0625 C-5.779375 2.4025 -4.93375 1.7425 -4.0625 1.0625 C-3.0625 0.0625 -3.0625 0.0625 0 0 Z " fill="#354E4C" transform="translate(161.0625,31.9375)"/>
<path d="M0 0 C2 2 2 2 2.125 5.125 C2.08375 6.07375 2.0425 7.0225 2 8 C2.61875 8.2475 3.2375 8.495 3.875 8.75 C6.35068687 10.20628639 6.95125002 11.37812506 8 14 C6.65686601 13.35330586 5.32608822 12.68096422 4 12 C3.113125 11.5875 2.22625 11.175 1.3125 10.75 C-1 9 -1 9 -1.9375 6 C-2 3 -2 3 0 0 Z " fill="#58696B" transform="translate(179,27)"/>
<path d="M0 0 C1.32 0 2.64 0 4 0 C4.90413673 3.83724172 5.10576898 7.37502274 5.0625 11.3125 C5.05347656 12.38113281 5.04445312 13.44976562 5.03515625 14.55078125 C5.02355469 15.35902344 5.01195312 16.16726562 5 17 C4.34 17 3.68 17 3 17 C2.45056479 13.23244425 1.93563716 9.46993694 1.5 5.6875 C1.22729076 2.1854317 1.22729076 2.1854317 0 0 Z " fill="#2D454E" transform="translate(167,35)"/>
<path d="M0 0 C1.2065625 0.0309375 1.2065625 0.0309375 2.4375 0.0625 C2.7675 0.7225 3.0975 1.3825 3.4375 2.0625 C1.7875 2.0625 0.1375 2.0625 -1.5625 2.0625 C0.75633213 6.57134026 3.50201569 9.00156776 7.4375 12.0625 C7.1075 12.7225 6.7775 13.3825 6.4375 14.0625 C-2.19371186 8.16886443 -2.19371186 8.16886443 -3.6875 3.6875 C-3.52113824 0.19390309 -3.49504304 0.08524495 0 0 Z " fill="#C6D4D5" transform="translate(183.5625,27.9375)"/>
<path d="M0 0 C0.66 0 1.32 0 2 0 C3.4783226 2.95664519 3.06032783 5.74229737 3 9 C2.34 9 1.68 9 1 9 C0.896875 9.639375 0.79375 10.27875 0.6875 10.9375 C0.460625 11.618125 0.23375 12.29875 0 13 C-0.99 13.33 -1.98 13.66 -3 14 C-2.68289062 13.44828125 -2.36578125 12.8965625 -2.0390625 12.328125 C-0.87290025 9.71522011 -0.59954289 7.59420998 -0.375 4.75 C-0.30023438 3.85796875 -0.22546875 2.9659375 -0.1484375 2.046875 C-0.09945312 1.37140625 -0.05046875 0.6959375 0 0 Z " fill="#B78F73" transform="translate(49,37)"/>
<path d="M0 0 C1.89453125 0.23046875 1.89453125 0.23046875 4 1 C5.01171875 2.92578125 5.01171875 2.92578125 5.6875 5.3125 C5.91824219 6.09238281 6.14898437 6.87226562 6.38671875 7.67578125 C6.94193288 9.77993672 7.48245243 11.88627768 8 14 C7.34 14 6.68 14 6 14 C4.99515796 12.04414675 3.99626195 10.08523763 3 8.125 C2.1646875 6.48917969 2.1646875 6.48917969 1.3125 4.8203125 C0 2 0 2 0 0 Z " fill="#F4DECB" transform="translate(80,32)"/>
<path d="M0 0 C2.31 0 4.62 0 7 0 C7 0.99 7 1.98 7 3 C8.98 3 10.96 3 13 3 C12.01 3.33 11.02 3.66 10 4 C9.67 4.99 9.34 5.98 9 7 C7.68 6.34 6.36 5.68 5 5 C5 4.34 5 3.68 5 3 C2.03 2.505 2.03 2.505 -1 2 C-0.67 1.34 -0.34 0.68 0 0 Z " fill="#F6E5D0" transform="translate(42,30)"/>
<path d="M0 0 C1.32 0.33 2.64 0.66 4 1 C3.67 4.3 3.34 7.6 3 11 C2.01 11 1.02 11 0 11 C0 7.37 0 3.74 0 0 Z " fill="#8A9493" transform="translate(197,20)"/>
<path d="M0 0 C0.99 0 1.98 0 3 0 C3 0.99 3 1.98 3 3 C-2.68854922 6.84361434 -7.54425869 5.95342799 -14 5 C-14 4.67 -14 4.34 -14 4 C-7.07 3.01 -7.07 3.01 0 2 C0 1.34 0 0.68 0 0 Z " fill="#C8A28E" transform="translate(24,46)"/>
<path d="M0 0 C0.33 0.66 0.66 1.32 1 2 C0.0625 4.625 0.0625 4.625 -1 7 C-3.97 7 -6.94 7 -10 7 C-9.01 6.67 -8.02 6.34 -7 6 C-7 5.34 -7 4.68 -7 4 C-4.69 2.68 -2.38 1.36 0 0 Z " fill="#F7EBDC" transform="translate(27,48)"/>
<path d="M0 0 C0.66 0 1.32 0 2 0 C2.8638129 1.45264038 3.71580454 2.9123163 4.5625 4.375 C5.27599609 5.59316406 5.27599609 5.59316406 6.00390625 6.8359375 C6.33261719 7.55007812 6.66132812 8.26421875 7 9 C6 11 6 11 4 12 C3.32332002 10.75539217 2.65905281 9.50403104 2 8.25 C1.62875 7.55390625 1.2575 6.8578125 0.875 6.140625 C0 4 0 4 0 0 Z " fill="#BEA089" transform="translate(78,32)"/>
<path d="M0 0 C4.29 0 8.58 0 13 0 C9.69932885 3.30067115 8.56345004 3.90686837 4 4 C2.68 2.68 1.36 1.36 0 0 Z " fill="#FDF5E7" transform="translate(36,53)"/>
<path d="M0 0 C0.66 0 1.32 0 2 0 C2.25 5.625 2.25 5.625 0 9 C-2.1640625 9.29296875 -2.1640625 9.29296875 -4.625 9.1875 C-5.44226563 9.16042969 -6.25953125 9.13335937 -7.1015625 9.10546875 C-7.72804688 9.07066406 -8.35453125 9.03585938 -9 9 C-9 8.67 -9 8.34 -9 8 C-6.03 7.34 -3.06 6.68 0 6 C0 4.02 0 2.04 0 0 Z " fill="#23403F" transform="translate(119,43)"/>
<path d="M0 0 C0.33 1.32 0.66 2.64 1 4 C0.505 3.67 0.01 3.34 -0.5 3 C-4.09090894 1.56363642 -7.14456127 1.87148538 -11 2 C-11 2.66 -11 3.32 -11 4 C-11.66 4 -12.32 4 -13 4 C-13 3.34 -13 2.68 -13 2 C-13.66 1.67 -14.32 1.34 -15 1 C-9.94997778 -0.03590199 -5.12583611 -0.10251672 0 0 Z " fill="#F1DCCB" transform="translate(72,31)"/>
<path d="M0 0 C1.98 0.495 1.98 0.495 4 1 C4 2.65 4 4.3 4 6 C2.35 5.67 0.7 5.34 -1 5 C-0.67 3.35 -0.34 1.7 0 0 Z " fill="#CAC1B5" transform="translate(101,24)"/>
<path d="M0 0 C3.3 0 6.6 0 10 0 C10 0.99 10 1.98 10 3 C6.6875 3.1875 6.6875 3.1875 3 3 C2.01 2.01 1.02 1.02 0 0 Z " fill="#C7CBCB" transform="translate(130,52)"/>
<path d="M0 0 C2.9719385 1.12451727 5.33440687 2.22293791 8 4 C7.67 5.32 7.34 6.64 7 8 C5.68 8.33 4.36 8.66 3 9 C3 8.34 3 7.68 3 7 C3.66 7 4.32 7 5 7 C5 6.01 5 5.02 5 4 C4.34 4 3.68 4 3 4 C3 3.34 3 2.68 3 2 C2.01 2 1.02 2 0 2 C0 1.34 0 0.68 0 0 Z " fill="#F0DDD2" transform="translate(21,25)"/>
<path d="M0 0 C0.66 0.33 1.32 0.66 2 1 C2 2.98 2 4.96 2 7 C0.68 7 -0.64 7 -2 7 C-2 5.02 -2 3.04 -2 1 C-1.34 0.67 -0.68 0.34 0 0 Z " fill="#EDF2F3" transform="translate(189,51)"/>
<path d="M0 0 C1.32 0 2.64 0 4 0 C4.33 1.65 4.66 3.3 5 5 C4.01 5.33 3.02 5.66 2 6 C1.34 5.67 0.68 5.34 0 5 C0 3.35 0 1.7 0 0 Z " fill="#79857F" transform="translate(106,46)"/>
<path d="M0 0 C0 0.66 0 1.32 0 2 C-2.97 2.66 -5.94 3.32 -9 4 C-9 3.01 -9 2.02 -9 1 C-6.04335481 -0.4783226 -3.25770263 -0.06032783 0 0 Z " fill="#FCFDFD" transform="translate(207,15)"/>
<path d="M0 0 C0.33 0 0.66 0 1 0 C1 1.98 1 3.96 1 6 C2.32 6.66 3.64 7.32 5 8 C4.01 8.495 4.01 8.495 3 9 C2.34 8.67 1.68 8.34 1 8 C1.33 9.32 1.66 10.64 2 12 C0.48046875 10.79296875 0.48046875 10.79296875 -1 9 C-1.07421875 6.73828125 -1.07421875 6.73828125 -0.6875 4.3125 C-0.56761719 3.50425781 -0.44773437 2.69601563 -0.32421875 1.86328125 C-0.21722656 1.24839844 -0.11023438 0.63351563 0 0 Z " fill="#989EA2" transform="translate(128,40)"/>
<path d="M0 0 C3.875 0.875 3.875 0.875 5 2 C5.04080783 3.99958364 5.04254356 6.00045254 5 8 C2.5 5.6875 2.5 5.6875 0 3 C0 2.01 0 1.02 0 0 Z " fill="#788D8D" transform="translate(139,32)"/>
<path d="M0 0 C0.70125 0.309375 1.4025 0.61875 2.125 0.9375 C5.08936657 2.03302678 7.87698108 2.56422992 11 3 C11 3.33 11 3.66 11 4 C7.7 4 4.4 4 1 4 C0.67 2.68 0.34 1.36 0 0 Z " fill="#3C4347" transform="translate(129,48)"/>
<path d="M0 0 C3.57104439 1.87949705 5.54744301 3.17053157 7 7 C4.13302508 5.71480435 2.02392288 4.42870746 0 2 C0 1.34 0 0.68 0 0 Z " fill="#334449" transform="translate(180,34)"/>
<path d="M0 0 C1.9375 0.6875 1.9375 0.6875 4 2 C4.75 4.625 4.75 4.625 5 7 C3.68 7 2.36 7 1 7 C1 6.34 1 5.68 1 5 C1.66 5 2.32 5 3 5 C2.01 3.35 1.02 1.7 0 0 Z " fill="#C6D5D2" transform="translate(187,25)"/>
<path d="M0 0 C2.31 0 4.62 0 7 0 C7 0.99 7 1.98 7 3 C4.36 2.67 1.72 2.34 -1 2 C-0.67 1.34 -0.34 0.68 0 0 Z " fill="#F3EFE0" transform="translate(42,30)"/>
<path d="M0 0 C0.99 0 1.98 0 3 0 C3 0.66 3 1.32 3 2 C3.66 2 4.32 2 5 2 C5 2.99 5 3.98 5 5 C2.525 4.01 2.525 4.01 0 3 C0 2.01 0 1.02 0 0 Z " fill="#B19A88" transform="translate(21,27)"/>
<path d="M0 0 C0.99 0.33 1.98 0.66 3 1 C2.67 1.66 2.34 2.32 2 3 C1.34 3 0.68 3 0 3 C0 2.01 0 1.02 0 0 Z " fill="#FEFDF2" transform="translate(39,44)"/>
<path d="" fill="#EDFAF0" transform="translate(0,0)"/>
<path d="M0 0 C2 1 2 1 2 1 Z " fill="#F7F4E8" transform="translate(80,46)"/>
<path d="M0 0 C2 1 2 1 2 1 Z " fill="#FFFFFF" transform="translate(77,30)"/>
<path d="" fill="#FFFFFF" transform="translate(0,0)"/>
<path d="" fill="#FFFFD4" transform="translate(0,0)"/>
<path d="" fill="#FFFFFF" transform="translate(0,0)"/>
</svg>
