<?xml version="1.0" encoding="UTF-8"?>
<svg version="1.1" xmlns="http://www.w3.org/2000/svg" width="247" height="57">
<path d="M0 0 C2.357168 1.928592 3.9049973 3.54868887 4.33374023 6.64868164 C4.34606689 7.37434326 4.35839355 8.10000488 4.37109375 8.84765625 C4.39623047 9.64107422 4.42136719 10.43449219 4.44726562 11.25195312 C4.48250266 12.92114455 4.51373458 14.59042521 4.54101562 16.25976562 C4.56744141 17.05189453 4.59386719 17.84402344 4.62109375 18.66015625 C4.63454834 19.38468994 4.64800293 20.10922363 4.66186523 20.85571289 C4.93086702 23.10119657 4.93086702 23.10119657 8.0625 24.6875 C8.25 27.8125 8.25 27.8125 8.0625 30.6875 C5.25334526 32.09207737 3.17439466 31.93645157 0.0625 31.6875 C-2.3125 30.1875 -2.3125 30.1875 -3.9375 28.6875 C-4.411875 29.1825 -4.88625 29.6775 -5.375 30.1875 C-9.18461181 32.41751667 -12.63130517 32.47671364 -16.9375 31.6875 C-20 29.75 -20 29.75 -21.9375 26.6875 C-22.7730935 22.49461117 -22.72458538 19.04701111 -20.5625 15.3125 C-15.88204523 12.41507562 -10.45446612 10.6875 -4.9375 10.6875 C-4.9375 9.3675 -4.9375 8.0475 -4.9375 6.6875 C-6.39765291 6.96991641 -7.85559793 7.26376614 -9.3125 7.5625 C-10.53066406 7.80613281 -10.53066406 7.80613281 -11.7734375 8.0546875 C-14.12423923 8.55408932 -14.12423923 8.55408932 -15.9375 10.6875 C-16.9275 10.6875 -17.9175 10.6875 -18.9375 10.6875 C-20.25268509 8.52131279 -20.9998069 7.24716899 -20.71484375 4.6875 C-19.46850028 1.48082735 -17.27626798 0.81848438 -14.26171875 -0.55078125 C-9.27256346 -2.18588256 -4.78846911 -2.13952875 0 0 Z M-12.9375 19.6875 C-12.6075 21.3375 -12.2775 22.9875 -11.9375 24.6875 C-9.52104218 24.85437448 -9.52104218 24.85437448 -6.9375 24.6875 C-4.3720406 22.1220406 -4.39703913 20.21063332 -3.9375 16.6875 C-7.63168201 16.6875 -9.71586178 17.96929295 -12.9375 19.6875 Z " fill="#8951F4" transform="translate(97.9375,16.3125)"/>
<path d="M0 0 C2.69131964 2.28354394 3.8511548 4.35376233 4.38134766 7.85644531 C4.428479 8.95617676 4.428479 8.95617676 4.4765625 10.078125 C4.51523438 10.87734375 4.55390625 11.6765625 4.59375 12.5 C4.6246875 13.325 4.655625 14.15 4.6875 15 C4.72617188 15.84046875 4.76484375 16.6809375 4.8046875 17.546875 C4.89865836 19.61423382 4.98165564 21.68208627 5.0625 23.75 C6.0525 24.08 7.0425 24.41 8.0625 24.75 C8.10504356 26.74954746 8.10330783 28.75041636 8.0625 30.75 C7.0625 31.75 7.0625 31.75 3.75 32 C-0.03517206 31.74337817 -1.26775858 31.31295176 -3.9375 28.75 C-4.411875 29.245 -4.88625 29.74 -5.375 30.25 C-9.14302978 32.45567597 -12.67016411 32.47952617 -16.9375 31.75 C-19.43910818 29.87379387 -20.55695652 28.51108697 -21.9375 25.75 C-22.4450645 21.35110767 -22.25074324 19.26880911 -19.9375 15.4375 C-16.72702764 12.00750816 -13.49667129 11.47367798 -8.9375 10.75 C-7.6175 10.75 -6.2975 10.75 -4.9375 10.75 C-4.9375 9.43 -4.9375 8.11 -4.9375 6.75 C-8.5675 7.41 -12.1975 8.07 -15.9375 8.75 C-15.9375 9.41 -15.9375 10.07 -15.9375 10.75 C-16.9275 10.75 -17.9175 10.75 -18.9375 10.75 C-20.25268509 8.58381279 -20.9998069 7.30966899 -20.71484375 4.75 C-19.46850028 1.54332735 -17.27626798 0.88098438 -14.26171875 -0.48828125 C-9.28487101 -2.119349 -4.80848288 -2.04616293 0 0 Z M-12.9375 18.75 C-12.980221 20.41611905 -12.97813832 22.08382885 -12.9375 23.75 C-11.88695399 24.99660324 -11.88695399 24.99660324 -9.5625 25.125 C-6.72535329 25.02857965 -6.72535329 25.02857965 -5.125 22.4375 C-3.73541808 19.78235083 -3.73541808 19.78235083 -3.9375 16.75 C-7.31773517 16.75 -9.77218937 17.62455622 -12.9375 18.75 Z " fill="#8953F3" transform="translate(65.9375,16.25)"/>
<path d="M0 0 C33.99 0 67.98 0 103 0 C104 4 104 4 103 7 C89.71812591 7.02312079 76.43625657 7.04091374 63.15436649 7.05181217 C56.9877508 7.05704158 50.82114882 7.06414027 44.65454102 7.07543945 C38.70883994 7.08626629 32.76315211 7.0922764 26.81744194 7.09487724 C24.54353057 7.09673186 22.26961996 7.10035317 19.99571419 7.10573006 C16.8227288 7.11293778 13.64979883 7.11399106 10.47680664 7.11352539 C9.52662659 7.11712067 8.57644653 7.12071594 7.59747314 7.12442017 C1.11405216 7.11405216 1.11405216 7.11405216 0 6 C0 4.02 0 2.04 0 0 Z " fill="#76C2E1" transform="translate(136,46)"/>
<path d="M0 0 C0.33 0.99 0.66 1.98 1 3 C1.66 3 2.32 3 3 3 C3 2.34 3 1.68 3 1 C7.04209174 -1.02104587 9.65078036 -1.32367554 14 0 C17.56855911 3.40635187 17.57126303 7.26906062 17.75 11.9375 C17.79253906 12.64068359 17.83507812 13.34386719 17.87890625 14.06835938 C18.07174643 17.87873856 17.95549703 21.30106833 17 25 C15.00045254 25.04254356 12.99958364 25.04080783 11 25 C8.88074396 22.88074396 9.58168983 18.3803907 9.4375 15.4375 C9.39431641 14.63119141 9.35113281 13.82488281 9.30664062 12.99414062 C9.20024738 10.99631195 9.09959112 8.9981793 9 7 C7.35 7.33 5.7 7.66 4 8 C3.67 13.61 3.34 19.22 3 25 C0.69 25 -1.62 25 -4 25 C-4.16890918 22.77100213 -4.33503687 20.54179338 -4.5 18.3125 C-4.5928125 17.07113281 -4.685625 15.82976563 -4.78125 14.55078125 C-4.95779937 11.68500671 -5.04388528 8.86900043 -5 6 C-6.98 6.33 -8.96 6.66 -11 7 C-11.33 12.94 -11.66 18.88 -12 25 C-14.31 25 -16.62 25 -19 25 C-19.02886984 21.02084841 -19.04675406 17.04172347 -19.0625 13.0625 C-19.07087891 11.92619141 -19.07925781 10.78988281 -19.08789062 9.61914062 C-19.09111328 8.53955078 -19.09433594 7.45996094 -19.09765625 6.34765625 C-19.10289307 5.34742432 -19.10812988 4.34719238 -19.11352539 3.31665039 C-19 1 -19 1 -18 0 C-16.00041636 -0.04080783 -13.99954746 -0.04254356 -12 0 C-11.67 0.66 -11.34 1.32 -11 2 C-10.67 1.34 -10.34 0.68 -10 0 C-6.30581799 -1.231394 -3.7943739 -0.64432764 0 0 Z " fill="#8C58EC" transform="translate(156,17)"/>
<path d="M0 0 C0 1.98 0 3.96 0 6 C2.31 6 4.62 6 7 6 C7 7.98 7 9.96 7 12 C4.69 12 2.38 12 0 12 C0.33 15.96 0.66 19.92 1 24 C2.98 24 4.96 24 7 24 C8.125 28.75 8.125 28.75 7 31 C4.00593841 31.93409773 1.12494629 32.21258138 -2 32 C-5.34015158 29.70364579 -6.64931176 28.10216303 -7.875 24.25 C-8.03504162 20.08891791 -7.59428545 16.11428389 -7 12 C-8.64666203 12.1135629 -10.29236082 12.24117381 -11.9375 12.375 C-12.85402344 12.44460937 -13.77054688 12.51421875 -14.71484375 12.5859375 C-15.84599609 12.79089844 -15.84599609 12.79089844 -17 13 C-18.76515437 16.53030873 -18.41070388 20.7716168 -18.60546875 24.67773438 C-18.89920831 29.89920831 -18.89920831 29.89920831 -20 31 C-22.31 31 -24.62 31 -27 31 C-27 22.75 -27 14.5 -27 6 C-24.69 6 -22.38 6 -20 6 C-19.67 6.66 -19.34 7.32 -19 8 C-18.67 7.34 -18.34 6.68 -18 6 C-14.37 6 -10.74 6 -7 6 C-7 4.35 -7 2.7 -7 1 C-4 0 -4 0 0 0 Z M-11 8 C-10 10 -10 10 -10 10 Z " fill="#824BEA" transform="translate(231,11)"/>
<path d="M0 0 C1.640625 1.10546875 1.640625 1.10546875 4.078125 3.10546875 C2.82835744 6.75863546 2.40713747 7.88612711 -0.921875 10.10546875 C-1.581875 9.44546875 -2.241875 8.78546875 -2.921875 8.10546875 C-5.57724872 7.54026872 -8.21332213 7.36758677 -10.921875 7.10546875 C-10.591875 8.09546875 -10.261875 9.08546875 -9.921875 10.10546875 C-7.48789605 10.95211255 -7.48789605 10.95211255 -4.609375 11.48046875 C-1.0199284 12.38948445 0.8585 12.92670422 3.765625 15.29296875 C5.50905767 19.0288959 5.90446969 22.05556162 5.078125 26.10546875 C2.9536423 29.54859589 1.92959859 30.82164422 -1.921875 32.10546875 C-8.02623498 32.60378385 -13.84536868 32.97964463 -18.921875 29.10546875 C-19.984375 26.66796875 -19.984375 26.66796875 -19.921875 24.10546875 C-18.484375 21.79296875 -18.484375 21.79296875 -16.921875 20.10546875 C-14.42825929 21.30928323 -12.24044417 22.55975597 -9.921875 24.10546875 C-7.29655976 24.27260444 -7.29655976 24.27260444 -4.921875 24.10546875 C-4.591875 22.78546875 -4.261875 21.46546875 -3.921875 20.10546875 C-4.953125 20.00234375 -5.984375 19.89921875 -7.046875 19.79296875 C-12.07092187 18.9016056 -15.53258305 17.76365592 -18.859375 13.79296875 C-20.23419298 10.31548797 -20.10291774 8.64859698 -18.921875 5.10546875 C-14.12974697 -0.56941971 -7.17568796 -3.33990354 0 0 Z " fill="#8954F0" transform="translate(127.921875,15.89453125)"/>
<path d="M0 0 C1.6484375 1.1015625 1.6484375 1.1015625 4.0859375 3.1015625 C3.47316138 6.06331373 2.83221228 7.48215033 1.0859375 10.1015625 C0.5909375 9.7921875 0.0959375 9.4828125 -0.4140625 9.1640625 C-3.89393031 7.68511868 -7.15434759 7.47753399 -10.9140625 7.1015625 C-10.5840625 8.0915625 -10.2540625 9.0815625 -9.9140625 10.1015625 C-7.20178484 11.02956494 -4.47842118 11.56520331 -1.67578125 12.16015625 C1.56000168 13.26316005 3.00673734 14.40343764 5.0859375 17.1015625 C5.88465278 20.18074762 5.749893 22.99757055 5.0859375 26.1015625 C2.6484375 29.1015625 2.6484375 29.1015625 0.0859375 31.1015625 C-0.2440625 31.4315625 -0.5740625 31.7615625 -0.9140625 32.1015625 C-7.54800257 32.63805532 -13.26894514 32.86497407 -18.9140625 29.1015625 C-18.9140625 28.4415625 -18.9140625 27.7815625 -18.9140625 27.1015625 C-19.5740625 26.7715625 -20.2340625 26.4415625 -20.9140625 26.1015625 C-19.2640625 24.1215625 -17.6140625 22.1415625 -15.9140625 20.1015625 C-14.645625 21.0915625 -14.645625 21.0915625 -13.3515625 22.1015625 C-9.47969303 24.35428655 -7.31127453 24.45333946 -2.9140625 24.1015625 C-3.2440625 23.1115625 -3.5740625 22.1215625 -3.9140625 21.1015625 C-5.8604282 20.60672376 -7.80962919 20.11953024 -9.7734375 19.69921875 C-12.97006353 18.8067301 -15.32084998 17.12553325 -17.9140625 15.1015625 C-19.44621138 12.03726474 -19.14344798 9.4849983 -18.9140625 6.1015625 C-17.61006319 3.01314309 -16.64018147 1.55004774 -13.7890625 -0.2109375 C-9.20900149 -1.30616948 -4.39184117 -2.06147647 0 0 Z " fill="#9463F2" transform="translate(34.9140625,15.8984375)"/>
<path d="M0 0 C2.75996705 2.49267295 2.99375546 3.9217351 3.29296875 7.671875 C3.27316751 9.03156035 3.23759202 10.3910934 3.1875 11.75 C3.16719727 12.79607422 3.16719727 12.79607422 3.14648438 13.86328125 C3.1112945 15.57585541 3.05749155 17.28802941 3 19 C3.99 19.33 4.98 19.66 6 20 C6 21.65 6 23.3 6 25 C0.25 26.125 0.25 26.125 -2 25 C-2 24.34 -2 23.68 -2 23 C-2.99 23.7734375 -2.99 23.7734375 -4 24.5625 C-7.93825449 26.44958028 -10.88360096 26.44029513 -15 25 C-17.85194898 22.06162832 -18 20.46402564 -18 16.375 C-17 13 -17 13 -14.875 11.1875 C-11.63352179 9.84862856 -8.39696789 8.86589378 -5 8 C-5 7.67 -5 7.34 -5 7 C-7.31 7 -9.62 7 -12 7 C-12 7.66 -12 8.32 -12 9 C-13.32 9 -14.64 9 -16 9 C-16.33 7.35 -16.66 5.7 -17 4 C-11.64584551 -0.61052193 -6.93403883 -2.349315 0 0 Z M-10 15 C-10 16.65 -10 18.3 -10 20 C-8.35 19.67 -6.7 19.34 -5 19 C-4.67 17.35 -4.34 15.7 -4 14 C-6.15634036 14 -7.92446352 14.4465236 -10 15 Z " fill="#581ADE" transform="translate(195,17)"/>
<path d="M0 0 C0.33 0.99 0.66 1.98 1 3 C1.66 3 2.32 3 3 3 C3 2.34 3 1.68 3 1 C7.04209174 -1.02104587 9.65078036 -1.32367554 14 0 C17.56855911 3.40635187 17.57126303 7.26906062 17.75 11.9375 C17.79253906 12.64068359 17.83507812 13.34386719 17.87890625 14.06835938 C18.07174643 17.87873856 17.95549703 21.30106833 17 25 C15.00045254 25.04254356 12.99958364 25.04080783 11 25 C8.88074396 22.88074396 9.58168983 18.3803907 9.4375 15.4375 C9.39431641 14.63119141 9.35113281 13.82488281 9.30664062 12.99414062 C9.20024738 10.99631195 9.09959112 8.9981793 9 7 C7.35 7.33 5.7 7.66 4 8 C3.67 13.61 3.34 19.22 3 25 C0.69 25 -1.62 25 -4 25 C-4.33 21.7 -4.66 18.4 -5 15 C-4.34 15 -3.68 15 -3 15 C-3 17.64 -3 20.28 -3 23 C-1.68 23 -0.36 23 1 23 C0.67 16.07 0.34 9.14 0 2 C-3.3 2 -6.6 2 -10 2 C-10 1.34 -10 0.68 -10 0 C-6.30581799 -1.231394 -3.7943739 -0.64432764 0 0 Z " fill="#A076E8" transform="translate(156,17)"/>
<path d="M0 0 C2.357168 1.928592 3.9049973 3.54868887 4.33374023 6.64868164 C4.34606689 7.37434326 4.35839355 8.10000488 4.37109375 8.84765625 C4.39623047 9.64107422 4.42136719 10.43449219 4.44726562 11.25195312 C4.48250266 12.92114455 4.51373458 14.59042521 4.54101562 16.25976562 C4.56744141 17.05189453 4.59386719 17.84402344 4.62109375 18.66015625 C4.63454834 19.38468994 4.64800293 20.10922363 4.66186523 20.85571289 C4.93086702 23.10119657 4.93086702 23.10119657 8.0625 24.6875 C8.25 27.8125 8.25 27.8125 8.0625 30.6875 C5.26379973 32.08685013 3.15751208 31.94015405 0.0625 31.6875 C-1.8125 30.1875 -1.8125 30.1875 -2.9375 28.6875 C-1.2875 28.0275 0.3625 27.3675 2.0625 26.6875 C2.0625 27.3475 2.0625 28.0075 2.0625 28.6875 C3.3825 28.6875 4.7025 28.6875 6.0625 28.6875 C6.0625 27.3675 6.0625 26.0475 6.0625 24.6875 C4.7425 24.3575 3.4225 24.0275 2.0625 23.6875 C1.7325 18.4075 1.4025 13.1275 1.0625 7.6875 C-0.2575 7.3575 -1.5775 7.0275 -2.9375 6.6875 C-2.9375 7.6775 -2.9375 8.6675 -2.9375 9.6875 C-3.5975 9.6875 -4.2575 9.6875 -4.9375 9.6875 C-4.9375 8.6975 -4.9375 7.7075 -4.9375 6.6875 C-6.39765291 6.96991641 -7.85559793 7.26376614 -9.3125 7.5625 C-10.53066406 7.80613281 -10.53066406 7.80613281 -11.7734375 8.0546875 C-14.12423923 8.55408932 -14.12423923 8.55408932 -15.9375 10.6875 C-16.9275 10.6875 -17.9175 10.6875 -18.9375 10.6875 C-20.25268509 8.52131279 -20.9998069 7.24716899 -20.71484375 4.6875 C-19.46850028 1.48082735 -17.27626798 0.81848438 -14.26171875 -0.55078125 C-9.27256346 -2.18588256 -4.78846911 -2.13952875 0 0 Z " fill="#CDB0FD" transform="translate(97.9375,16.3125)"/>
<path d="M0 0 C15.18 0 30.36 0 46 0 C43 5 43 5 41.00679016 5.60127258 C39.87094734 5.584618 39.87094734 5.584618 38.7121582 5.56762695 C37.85149246 5.5672493 36.99082672 5.56687164 36.1040802 5.56648254 C35.17899155 5.54067612 34.25390289 5.51486969 33.30078125 5.48828125 C32.35059616 5.48120651 31.40041107 5.47413177 30.4214325 5.46684265 C27.38432324 5.4388367 24.34905265 5.37608644 21.3125 5.3125 C19.2545839 5.28742516 17.19663893 5.26461058 15.13867188 5.24414062 C10.09173866 5.18898955 5.04618112 5.10267382 0 5 C0 3.35 0 1.7 0 0 Z " fill="#8275E6" transform="translate(136,46)"/>
<path d="M0 0 C0.33 0 0.66 0 1 0 C1.33 6.27 1.66 12.54 2 19 C2.99 19.33 3.98 19.66 5 20 C5 21.32 5 22.64 5 24 C3.68 24 2.36 24 1 24 C0.67 23.67 0.34 23.34 0 23 C-2.05396726 23.40929986 -2.05396726 23.40929986 -4 24 C-4 23.34 -4 22.68 -4 22 C-5.299375 22.99 -5.299375 22.99 -6.625 24 C-10.22579376 26.13380371 -11.90605837 26.6513089 -16 26 C-16.66 25.01 -17.32 24.02 -18 23 C-15.93243723 20.2027092 -14.85559629 19.97307727 -11.3125 19.3125 C-10.219375 19.209375 -9.12625 19.10625 -8 19 C-7.80664062 18.39671875 -7.61328125 17.7934375 -7.4140625 17.171875 C-7.15367188 16.37265625 -6.89328125 15.5734375 -6.625 14.75 C-6.36976562 13.96109375 -6.11453125 13.1721875 -5.8515625 12.359375 C-5.04826333 10.13372042 -4.10288338 8.09068328 -3 6 C-4.32 6.33 -5.64 6.66 -7 7 C-6.67 6.34 -6.34 5.68 -6 5 C-5.34 5 -4.68 5 -4 5 C-4 4.01 -4 3.02 -4 2 C-2.68 2.33 -1.36 2.66 0 3 C0 2.01 0 1.02 0 0 Z " fill="#8A50F8" transform="translate(99,21)"/>
<path d="M0 0 C0.62589928 8.13669065 0.62589928 8.13669065 -1.8125 11.5 C-5.97655626 14.35535286 -10.11355243 14.38342563 -15 14 C-17.41374737 13.4782313 -19.65132499 12.78289167 -22 12 C-22.6875 9.75 -22.6875 9.75 -23 7 C-21.5625 4.6875 -21.5625 4.6875 -20 3 C-17.50638429 4.20381448 -15.31856917 5.45428722 -13 7 C-9.89143 7.23314275 -7.98586231 6.99528744 -5 6 C-5.33 4.02 -5.66 2.04 -6 0 C-3.50907189 -1.24546405 -2.58919267 -0.7767578 0 0 Z " fill="#9161F2" transform="translate(131,33)"/>
<path d="M0 0 C2.31 0 4.62 0 7 0 C7.33 0.66 7.66 1.32 8 2 C8.33 1.34 8.66 0.68 9 0 C10.98 0 12.96 0 15 0 C14.67 1.65 14.34 3.3 14 5 C11.69 5.33 9.38 5.66 7 6 C6.67 11.94 6.34 17.88 6 24 C4.02 24 2.04 24 0 24 C0 16.08 0 8.16 0 0 Z " fill="#5C15E9" transform="translate(204,17)"/>
<path d="M0 0 C7.42533616 0.48690729 7.42533616 0.48690729 9.75 2.5625 C11.48041843 5.93681594 11.32363832 9.0568116 11.1875 12.75 C11.16719727 13.79607422 11.16719727 13.79607422 11.14648438 14.86328125 C11.1112945 16.57585541 11.05749155 18.28802941 11 20 C11.99 20.33 12.98 20.66 14 21 C14 22.65 14 24.3 14 26 C8.25 27.125 8.25 27.125 6 26 C6 25.34 6 24.68 6 24 C5.01 24.7734375 5.01 24.7734375 4 25.5625 C-0.14659826 27.54941167 -2.53020565 26.83335149 -7 26 C-7 25.67 -7 25.34 -7 25 C-4.03 24.67 -1.06 24.34 2 24 C2.66 21.03 3.32 18.06 4 15 C2.02 15.33 0.04 15.66 -2 16 C-2 17.65 -2 19.3 -2 21 C-2.66 20.67 -3.32 20.34 -4 20 C-3.84765625 17.67578125 -3.84765625 17.67578125 -3 15 C-0.49609375 13.41796875 -0.49609375 13.41796875 2.5625 12.1875 C3.57441406 11.76855469 4.58632812 11.34960938 5.62890625 10.91796875 C6.41136719 10.61503906 7.19382813 10.31210937 8 10 C8 8.02 8 6.04 8 4 C5.36 3.34 2.72 2.68 0 2 C0 1.34 0 0.68 0 0 Z " fill="#A37AED" transform="translate(187,16)"/>
<path d="M0 0 C0.66 0.33 1.32 0.66 2 1 C1.34 2.32 0.68 3.64 0 5 C1.32 4.34 2.64 3.68 4 3 C4 4.98 4 6.96 4 9 C8.02130715 9.27635161 8.02130715 9.27635161 12 9 C14.05270463 7.15811388 14.05270463 7.15811388 15 5 C14.979375 5.78375 14.95875 6.5675 14.9375 7.375 C14.81315937 9.98114961 14.81315937 9.98114961 16 12 C13.90050565 14.70902496 12.2529027 16.73024693 8.8046875 17.47265625 C4.86236508 17.62228235 2.71389066 17.53541799 -0.5 15.125 C-3.21615382 11.27711542 -3.32587662 8.72521097 -3 4 C-1.5 1.5625 -1.5 1.5625 0 0 Z " fill="#9261F1" transform="translate(47,31)"/>
<path d="M0 0 C8.9417411 1.14331422 8.9417411 1.14331422 12.625 4.125 C14.42644089 7.89164914 14.83667177 10.89947993 14 15 C11.8755173 18.44312714 10.85147359 19.71617547 7 21 C5.16943607 21.11854556 3.33435694 21.17517233 1.5 21.1875 C0.06140625 21.20876953 0.06140625 21.20876953 -1.40625 21.23046875 C-4 21 -4 21 -7 19 C-6.19175781 19.01160156 -5.38351563 19.02320312 -4.55078125 19.03515625 C-3.48214844 19.04417969 -2.41351563 19.05320312 -1.3125 19.0625 C-0.25675781 19.07410156 0.79898438 19.08570312 1.88671875 19.09765625 C4.72410262 19.00865425 7.2438919 18.64939838 10 18 C11.29721449 14.10835652 11.13033993 11.10570774 11 7 C10.67 6.34 10.34 5.68 10 5 C8.68 5.33 7.36 5.66 6 6 C6.33 7.98 6.66 9.96 7 12 C6.34 12 5.68 12 5 12 C5 11.01 5 10.02 5 9 C3.96875 8.896875 2.9375 8.79375 1.875 8.6875 C-2.00243875 7.99956732 -4.64530825 7.02841827 -8 5 C-8.66 4.01 -9.32 3.02 -10 2 C-9.46375 2.144375 -8.9275 2.28875 -8.375 2.4375 C-5.60084173 3.09453748 -2.81474612 3.55219948 0 4 C0 2.68 0 1.36 0 0 Z " fill="#B694F6" transform="translate(119,27)"/>
<path d="M0 0 C0.99 0.33 1.98 0.66 3 1 C2.67 2.98 2.34 4.96 2 7 C-31.66 7 -65.32 7 -100 7 C-100.33 6.34 -100.66 5.68 -101 5 C-67.67 5 -34.34 5 0 5 C0 3.35 0 1.7 0 0 Z " fill="#D1E6FC" transform="translate(237,46)"/>
<path d="M0 0 C-0.33 0.99 -0.66 1.98 -1 3 C-3.5625 4.1875 -3.5625 4.1875 -6 5 C-6 6.32 -6 7.64 -6 9 C-3.36 9 -0.72 9 2 9 C1.01 9.495 1.01 9.495 0 10 C-0.33 11.32 -0.66 12.64 -1 14 C-4.3 14 -7.6 14 -11 14 C-13.28036004 9.43927991 -13.31803492 7.83279472 -12 3 C-8.65765407 0.21471173 -4.16535212 -2.08267606 0 0 Z " fill="#6B33D7" transform="translate(190,27)"/>
<path d="M0 0 C6.27 0 12.54 0 19 0 C19 0.33 19 0.66 19 1 C27.58 1.66 36.16 2.32 45 3 C45 3.33 45 3.66 45 4 C29.82 4 14.64 4 -1 4 C-0.67 2.68 -0.34 1.36 0 0 Z " fill="#77A6E5" transform="translate(180,47)"/>
<path d="M0 0 C3 2 3 2 3.46875 3.98828125 C3.52947566 8.5047524 3.5152757 10.36581452 0.5625 14 C-0.283125 14.66 -1.12875 15.32 -2 16 C-2.33 16.33 -2.66 16.66 -3 17 C-9.63394007 17.53649282 -15.35488264 17.76341157 -21 14 C-21 13.34 -21 12.68 -21 12 C-21.66 11.67 -22.32 11.34 -23 11 C-21.35 9.02 -19.7 7.04 -18 5 C-16.02 6.32 -14.04 7.64 -12 9 C-12.99 9.66 -13.98 10.32 -15 11 C-15.66 10.67 -16.32 10.34 -17 10 C-17 10.66 -17 11.32 -17 12 C-14.69 12.33 -12.38 12.66 -10 13 C-10 13.33 -10 13.66 -10 14 C-5.65736138 14.16702456 -2.79039366 14.12999997 1 12 C1.02712066 10.56260487 1.04645067 9.12506137 1.0625 7.6875 C1.07410156 6.88699219 1.08570312 6.08648437 1.09765625 5.26171875 C1.09657855 2.83138666 1.09657855 2.83138666 0 0 Z " fill="#996FEE" transform="translate(37,31)"/>
<path d="M0 0 C2.0625 1.875 2.0625 1.875 3 4 C3 4.66 3 5.32 3 6 C1.0625 6.5625 1.0625 6.5625 -1 7 C-1.33 6.67 -1.66 6.34 -2 6 C-7.33893232 5.37919392 -9.72212062 6.95795244 -14 10 C-14.99 10 -15.98 10 -17 10 C-17.33 8.35 -17.66 6.7 -18 5 C-11.95023118 0.83238148 -7.3523334 -1.02686221 0 0 Z " fill="#8952F8" transform="translate(95,15)"/>
<path d="M0 0 C1.18851563 0.19464844 2.37703125 0.38929687 3.6015625 0.58984375 C4.97441406 0.82380859 4.97441406 0.82380859 6.375 1.0625 C6.375 2.0525 6.375 3.0425 6.375 4.0625 C4.58409747 4.25716332 2.79223495 4.44301213 1 4.625 C-0.49660156 4.78162109 -0.49660156 4.78162109 -2.0234375 4.94140625 C-4.625 5.0625 -4.625 5.0625 -6.625 4.0625 C-6.625 6.0425 -6.625 8.0225 -6.625 10.0625 C-5.965 10.3925 -5.305 10.7225 -4.625 11.0625 C-4.625 12.0525 -4.625 13.0425 -4.625 14.0625 C-6.275 14.3925 -7.925 14.7225 -9.625 15.0625 C-12.10886059 11.33670911 -12.0054212 9.47538598 -11.625 5.0625 C-8.62547576 -1.2092325 -6.56972748 -1.09495458 0 0 Z " fill="#915DFA" transform="translate(27.625,16.9375)"/>
<path d="M0 0 C6.40141012 -0.51211281 9.98010898 -0.11888494 15 4 C13.75023244 7.65316671 13.32901247 8.78065836 10 11 C9.34 10.34 8.68 9.68 8 9 C5.34462628 8.43479997 2.70855287 8.26211802 0 8 C0.33 9.32 0.66 10.64 1 12 C0.01 12.495 0.01 12.495 -1 13 C-1.625 10.6875 -1.625 10.6875 -2 8 C0 5 0 5 3 4 C2.01 3.34 1.02 2.68 0 2 C0 1.34 0 0.68 0 0 Z " fill="#A87DF5" transform="translate(117,15)"/>
<path d="M0 0 C6.875 0.875 6.875 0.875 8 2 C8.08669432 3.4887186 8.10703494 4.981445 8.09765625 6.47265625 C8.09443359 7.37177734 8.09121094 8.27089844 8.08789062 9.19726562 C8.07951172 10.14279297 8.07113281 11.08832031 8.0625 12.0625 C8.05798828 13.01189453 8.05347656 13.96128906 8.04882812 14.93945312 C8.0370011 17.29303065 8.02052025 19.64648477 8 22 C6.68 22 5.36 22 4 22 C3.67 15.73 3.34 9.46 3 3 C2.01 2.67 1.02 2.34 0 2 C0 1.34 0 0.68 0 0 Z " fill="#5A13E3" transform="translate(163,18)"/>
<path d="M0 0 C3.59707221 1.04914606 4.20158595 1.6450897 6 4.875 C6.39945876 7.58846631 6.6457908 10.09065487 6.75 12.8125 C6.79253906 13.51568359 6.83507812 14.21886719 6.87890625 14.94335938 C7.07174643 18.75373856 6.95549703 22.17606833 6 25.875 C4.00045254 25.91754356 1.99958364 25.91580783 0 25.875 C-1.51421001 24.36078999 -1.21309856 22.95027232 -1.31640625 20.83984375 C-1.35830078 20.03095703 -1.40019531 19.22207031 -1.44335938 18.38867188 C-1.48267578 17.53853516 -1.52199219 16.68839844 -1.5625 15.8125 C-1.60568359 14.95849609 -1.64886719 14.10449219 -1.69335938 13.22460938 C-1.79976702 11.10827963 -1.90041731 8.99166187 -2 6.875 C-1.34 6.875 -0.68 6.875 0 6.875 C0 12.485 0 18.095 0 23.875 C1.32 23.875 2.64 23.875 4 23.875 C3.67 17.275 3.34 10.675 3 3.875 C-1.455 2.885 -1.455 2.885 -6 1.875 C-3 -0.125 -3 -0.125 0 0 Z " fill="#A582E6" transform="translate(167,16.125)"/>
<path d="M0 0 C0.05422947 1.4370809 0.09289723 2.87475462 0.125 4.3125 C0.14820313 5.11300781 0.17140625 5.91351563 0.1953125 6.73828125 C0 9 0 9 -2 12 C-5.625 12.1875 -5.625 12.1875 -9 12 C-9.33 11.34 -9.66 10.68 -10 10 C-13.02934491 9.34227572 -13.02934491 9.34227572 -16 9 C-16 8.67 -16 8.34 -16 8 C-14.01432292 7.77213542 -12.02864583 7.54427083 -10.04296875 7.31640625 C-7.80603607 7.02829265 -7.80603607 7.02829265 -5 6 C-5.33 4.02 -5.66 2.04 -6 0 C-3.50907189 -1.24546405 -2.58919267 -0.7767578 0 0 Z " fill="#8B53F7" transform="translate(131,33)"/>
<path d="M0 0 C1.65 0 3.3 0 5 0 C5 1.98 5 3.96 5 6 C5.61875 6.12375 6.2375 6.2475 6.875 6.375 C9 7 9 7 11 9 C9.02 9 7.04 9 5 9 C5.33 13.95 5.66 18.9 6 24 C5.34 23.67 4.68 23.34 4 23 C4 18.38 4 13.76 4 9 C1.36 9.33 -1.28 9.66 -4 10 C-4 8.35 -4 6.7 -4 5 C-2.68 5 -1.36 5 0 5 C0 3.35 0 1.7 0 0 Z " fill="#601CE1" transform="translate(224,12)"/>
<path d="M0 0 C1.2380014 3.57644848 0.74926071 6.33694766 0 10 C3.03292954 8.85916824 3.03292954 8.85916824 6 7 C6.96906827 4.41585574 6.96906827 4.41585574 7 2 C11.1077065 0.41293158 12.59232396 -0.10191901 17 1 C14.36 1.99 11.72 2.98 9 4 C9.12375 5.11375 9.12375 5.11375 9.25 6.25 C8.92894816 9.78157027 7.64734383 10.76630364 5 13 C6.09069279 14.30408759 6.09069279 14.30408759 8.75 14.25 C12.33357037 13.97434074 14.09858004 13.04806115 17 11 C15.25 14.875 15.25 14.875 13 16 C8.2959849 16.6469176 5.00898393 16.63833677 0.9375 14.0625 C-1.63833677 9.99101607 -1.6469176 6.7040151 -1 2 C-0.67 1.34 -0.34 0.68 0 0 Z " fill="#B892F6" transform="translate(77,32)"/>
<path d="M0 0 C1.32 0 2.64 0 4 0 C4 1.98 4 3.96 4 6 C6.31 6 8.62 6 11 6 C11 7.98 11 9.96 11 12 C8.69 12 6.38 12 4 12 C4.33 16.29 4.66 20.58 5 25 C4.34 25 3.68 25 3 25 C1.55792059 22.11584117 1.90605113 19.58278472 1.9375 16.375 C1.94652344 15.18648437 1.95554688 13.99796875 1.96484375 12.7734375 C1.97644531 11.85820312 1.98804688 10.94296875 2 10 C3.32 9.67 4.64 9.34 6 9 C4.68 8.34 3.36 7.68 2 7 C2 5.02 2 3.04 2 1 C1.34 0.67 0.68 0.34 0 0 Z " fill="#B593EF" transform="translate(227,11)"/>
<path d="M0 0 C2 2 2 2 2.125 4.625 C2.08375 5.40875 2.0425 6.1925 2 7 C2.66 7 3.32 7 4 7 C4 7.99 4 8.98 4 10 C3.34 10 2.68 10 2 10 C2 9.34 2 8.68 2 8 C0.700625 8.99 0.700625 8.99 -0.625 10 C-4.22579376 12.13380371 -5.90605837 12.6513089 -10 12 C-10.66 11.01 -11.32 10.02 -12 9 C-9.93243723 6.2027092 -8.85559629 5.97307727 -5.3125 5.3125 C-4.219375 5.209375 -3.12625 5.10625 -2 5 C-1.34 3.35 -0.68 1.7 0 0 Z " fill="#9162ED" transform="translate(93,35)"/>
<path d="M0 0 C-2.75962643 4.07213169 -5.34844138 5.33872906 -10 7 C-10.99 7 -11.98 7 -13 7 C-13 7.66 -13 8.32 -13 9 C-14.32 8.34 -15.64 7.68 -17 7 C-16.71364159 4.23186874 -16.18075889 3.1687083 -14.125 1.25 C-9.4652828 -0.61388688 -4.95709043 -0.23439832 0 0 Z " fill="#7F4FE7" transform="translate(62,16)"/>
<path d="M0 0 C2.31 0 4.62 0 7 0 C6.67 1.32 6.34 2.64 6 4 C5.67 3.01 5.34 2.02 5 1 C3.68 1 2.36 1 1 1 C1 7.93 1 14.86 1 22 C1.99 22 2.98 22 4 22 C4 17.38 4 12.76 4 8 C4.66 7.67 5.32 7.34 6 7 C6 12.61 6 18.22 6 24 C4.02 24 2.04 24 0 24 C0 16.08 0 8.16 0 0 Z " fill="#6E3CCF" transform="translate(204,17)"/>
<path d="M0 0 C4.82557822 0.02312577 7.12879921 1.28997628 10.8125 4.3125 C10.19972388 7.27425123 9.55877478 8.69308783 7.8125 11.3125 C6.4925 10.6525 5.1725 9.9925 3.8125 9.3125 C3.8125 8.6525 3.8125 7.9925 3.8125 7.3125 C3.1525 6.9825 2.4925 6.6525 1.8125 6.3125 C3.1325 6.3125 4.4525 6.3125 5.8125 6.3125 C5.8125 5.3225 5.8125 4.3325 5.8125 3.3125 C2.83398438 3.41015625 2.83398438 3.41015625 -0.14453125 3.5078125 C-2.1875 3.3125 -2.1875 3.3125 -5.1875 1.3125 C-3.63719882 -0.23780118 -2.15073999 0.06844901 0 0 Z " fill="#936BE7" transform="translate(28.1875,14.6875)"/>
<path d="M0 0 C0.33 0 0.66 0 1 0 C1 1.65 1 3.3 1 5 C2.32 5.33 3.64 5.66 5 6 C3.93458984 6.07347656 3.93458984 6.07347656 2.84765625 6.1484375 C1.92855469 6.22320313 1.00945312 6.29796875 0.0625 6.375 C-0.85402344 6.44460937 -1.77054688 6.51421875 -2.71484375 6.5859375 C-3.84599609 6.79089844 -3.84599609 6.79089844 -5 7 C-6.76515437 10.53030873 -6.41070388 14.7716168 -6.60546875 18.67773438 C-6.89920831 23.89920831 -6.89920831 23.89920831 -8 25 C-10.33297433 25.04092937 -12.66705225 25.04241723 -15 25 C-15 24.67 -15 24.34 -15 24 C-13.02 24 -11.04 24 -9 24 C-9.03480469 22.87980469 -9.06960937 21.75960937 -9.10546875 20.60546875 C-9.13360839 19.13282749 -9.16090837 17.66017002 -9.1875 16.1875 C-9.22520508 15.08051758 -9.22520508 15.08051758 -9.26367188 13.95117188 C-9.33763538 8.50252708 -9.33763538 8.50252708 -7.65625 6 C-5.38051944 4.625974 -3.60439442 4.78883288 -1 5 C-0.67 3.35 -0.34 1.7 0 0 Z " fill="#E9D6FE" transform="translate(219,17)"/>
<path d="M0 0 C0 0.66 0 1.32 0 2 C-2.31 2.66 -4.62 3.32 -7 4 C-7 4.66 -7 5.32 -7 6 C-2.545 5.505 -2.545 5.505 2 5 C-0.5654594 7.5654594 -2.47686668 7.54046087 -6 8 C-6 9.65 -6 11.3 -6 13 C-6.66 13 -7.32 13 -8 13 C-8.33 11.35 -8.66 9.7 -9 8 C-10.65 8.66 -12.3 9.32 -14 10 C-10 2 -10 2 -8.22265625 1.3671875 C-7.50980469 1.20476563 -6.79695313 1.04234375 -6.0625 0.875 C-5.35222656 0.70742188 -4.64195313 0.53984375 -3.91015625 0.3671875 C-2 0 -2 0 0 0 Z " fill="#B690F9" transform="translate(59,27)"/>
<path d="M0 0 C0.66 0.66 1.32 1.32 2 2 C1.67 2.99 1.34 3.98 1 5 C-0.32 4.67 -1.64 4.34 -3 4 C-3 4.99 -3 5.98 -3 7 C-3.66 7 -4.32 7 -5 7 C-5 6.01 -5 5.02 -5 4 C-6.46015291 4.28241641 -7.91809793 4.57626614 -9.375 4.875 C-10.59316406 5.11863281 -10.59316406 5.11863281 -11.8359375 5.3671875 C-14.18673923 5.86658932 -14.18673923 5.86658932 -16 8 C-16.99 8 -17.98 8 -19 8 C-19 7.34 -19 6.68 -19 6 C-15.59546508 3.14848598 -12.2371437 1.14554632 -7.8125 0.625 C-5.17267966 0.97697605 -2.59261293 1.38997343 0 2 C0 1.34 0 0.68 0 0 Z " fill="#9764F1" transform="translate(98,19)"/>
<path d="M0 0 C0.33 0 0.66 0 1 0 C1 5.28 1 10.56 1 16 C-0.32 16 -1.64 16 -3 16 C-3 11.05 -3 6.1 -3 1 C-2.01 1.495 -2.01 1.495 -1 2 C-0.67 1.34 -0.34 0.68 0 0 Z " fill="#5719D8" transform="translate(156,24)"/>
<path d="M0 0 C0.33 0 0.66 0 1 0 C1.33 3.3 1.66 6.6 2 10 C2.66 8.68 3.32 7.36 4 6 C4 10.95 4 15.9 4 21 C2.68 21 1.36 21 0 21 C0 14.07 0 7.14 0 0 Z " fill="#5316D1" transform="translate(138,19)"/>
<path d="M0 0 C1.17755859 -0.03867188 1.17755859 -0.03867188 2.37890625 -0.078125 C3.05824219 0.03015625 3.73757812 0.1384375 4.4375 0.25 C5.0975 1.24 5.7575 2.23 6.4375 3.25 C1.4875 3.25 -3.4625 3.25 -8.5625 3.25 C-8.2325 4.57 -7.9025 5.89 -7.5625 7.25 C-8.2225 7.25 -8.8825 7.25 -9.5625 7.25 C-9.5625 8.24 -9.5625 9.23 -9.5625 10.25 C-10.5525 10.25 -11.5425 10.25 -12.5625 10.25 C-12.8925 8.6 -13.2225 6.95 -13.5625 5.25 C-8.93461058 2.0618984 -5.65139641 0.11172448 0 0 Z " fill="#9163ED" transform="translate(90.5625,14.75)"/>
<path d="M0 0 C0.66 0.33 1.32 0.66 2 1 C1.34 2.32 0.68 3.64 0 5 C1.32 4.34 2.64 3.68 4 3 C3.67 5.97 3.34 8.94 3 12 C2.01 12.33 1.02 12.66 0 13 C-0.99 12.34 -1.98 11.68 -3 11 C-3.42431591 7.18115682 -3.5390434 4.87594552 -1.5 1.5625 C-1.005 1.046875 -0.51 0.53125 0 0 Z " fill="#8651F1" transform="translate(47,31)"/>
<path d="M0 0 C0 1.98 0 3.96 0 6 C-0.66 5.67 -1.32 5.34 -2 5 C-2 4.67 -2 4.34 -2 4 C-4.31 4 -6.62 4 -9 4 C-9 4.66 -9 5.32 -9 6 C-10.32 6 -11.64 6 -13 6 C-13.33 4.68 -13.66 3.36 -14 2 C-12.04396149 1.47061343 -10.08507711 0.95173199 -8.125 0.4375 C-7.03445312 0.14746094 -5.94390625 -0.14257812 -4.8203125 -0.44140625 C-2 -1 -2 -1 0 0 Z " fill="#A177EC" transform="translate(192,20)"/>
<path d="M0 0 C9.78585462 -0.57563851 9.78585462 -0.57563851 14 3 C15.74735678 5.87737019 16.24312625 7.98116262 16.1953125 11.328125 C16.18886719 12.12734375 16.18242188 12.9265625 16.17578125 13.75 C16.15902344 14.575 16.14226562 15.4 16.125 16.25 C16.11597656 17.09046875 16.10695313 17.9309375 16.09765625 18.796875 C16.07415817 20.86470604 16.03828908 22.93238995 16 25 C15.67 25 15.34 25 15 25 C14.98582031 23.90300781 14.97164062 22.80601563 14.95703125 21.67578125 C14.91011292 20.22131302 14.86186562 18.76688723 14.8125 17.3125 C14.80669922 16.59126953 14.80089844 15.87003906 14.79492188 15.12695312 C14.62291437 10.94143709 14.38657891 9.43998384 11.51171875 6.16796875 C10.68285156 5.45253906 9.85398437 4.73710937 9 4 C8.67 3.01 8.34 2.02 8 1 C5.36 1 2.72 1 0 1 C0 0.67 0 0.34 0 0 Z " fill="#CCB0F7" transform="translate(54,15)"/>
<path d="M0 0 C1.98 0 3.96 0 6 0 C5.67 1.65 5.34 3.3 5 5 C3.865625 5.12375 2.73125 5.2475 1.5625 5.375 C-0.2009375 5.684375 -0.2009375 5.684375 -2 6 C-2.33 6.66 -2.66 7.32 -3 8 C-3.66 8 -4.32 8 -5 8 C-5 6.68 -5 5.36 -5 4 C-4.360625 3.71125 -3.72125 3.4225 -3.0625 3.125 C-0.84793921 2.17176549 -0.84793921 2.17176549 0 0 Z " fill="#6126DC" transform="translate(213,17)"/>
<path d="M0 0 C0.33 0 0.66 0 1 0 C1.33 6.27 1.66 12.54 2 19 C2.99 19.33 3.98 19.66 5 20 C5 21.32 5 22.64 5 24 C3.68 24 2.36 24 1 24 C0.67 23.67 0.34 23.34 0 23 C-0.66 23.33 -1.32 23.66 -2 24 C-2 22.68 -2 21.36 -2 20 C-1.34 20 -0.68 20 0 20 C0 13.4 0 6.8 0 0 Z " fill="#804DE7" transform="translate(99,21)"/>
<path d="M0 0 C1.65 1.32 3.3 2.64 5 4 C4.34 4 3.68 4 3 4 C2.67 5.32 2.34 6.64 2 8 C2 7.01 2 6.02 2 5 C-1.63 5.66 -5.26 6.32 -9 7 C-9 7.66 -9 8.32 -9 9 C-9.99 9 -10.98 9 -12 9 C-12 8.34 -12 7.68 -12 7 C-11.34 7 -10.68 7 -10 7 C-10 6.34 -10 5.68 -10 5 C-3.375 2 -3.375 2 0 2 C0 1.34 0 0.68 0 0 Z " fill="#C5A3FA" transform="translate(59,18)"/>
<path d="M0 0 C3 2 3 2 3.46875 3.98828125 C3.52947566 8.5047524 3.5152757 10.36581452 0.5625 14 C-0.283125 14.66 -1.12875 15.32 -2 16 C-2.33 16.33 -2.66 16.66 -3 17 C-4.95530764 17.12548989 -6.91570479 17.17575363 -8.875 17.1875 C-10.47988281 17.20876953 -10.47988281 17.20876953 -12.1171875 17.23046875 C-15 17 -15 17 -18 15 C-17.10796875 15.03480469 -16.2159375 15.06960937 -15.296875 15.10546875 C-14.12640625 15.13253906 -12.9559375 15.15960938 -11.75 15.1875 C-10.58984375 15.22230469 -9.4296875 15.25710937 -8.234375 15.29296875 C-4.7260383 14.97518463 -3.58787383 14.26142185 -1 12 C-0.34 12 0.32 12 1 12 C1.02712066 10.56260487 1.04645067 9.12506137 1.0625 7.6875 C1.07410156 6.88699219 1.08570312 6.08648437 1.09765625 5.26171875 C1.09657855 2.83138666 1.09657855 2.83138666 0 0 Z " fill="#E9D3FD" transform="translate(37,31)"/>
<path d="M0 0 C5.94 0.99 5.94 0.99 12 2 C12 2.99 12 3.98 12 5 C10.23303157 5.27599507 8.46103785 5.51996915 6.6875 5.75 C5.70136719 5.88921875 4.71523438 6.0284375 3.69921875 6.171875 C1 6 1 6 -0.85546875 4.015625 C-1.23316406 3.35046875 -1.61085938 2.6853125 -2 2 C-1.34 2 -0.68 2 0 2 C0 1.34 0 0.68 0 0 Z " fill="#8651F4" transform="translate(22,16)"/>
<path d="M0 0 C0 3 0 3 -2 6 C-4.1640625 6.51171875 -4.1640625 6.51171875 -6.625 6.6875 C-7.85089844 6.78611328 -7.85089844 6.78611328 -9.1015625 6.88671875 C-9.72804688 6.92410156 -10.35453125 6.96148437 -11 7 C-10.67 6.34 -10.34 5.68 -10 5 C-6.9375 4.375 -6.9375 4.375 -4 4 C-7.3 4 -10.6 4 -14 4 C-10.96739103 1.97826068 -9.91309963 1.70661562 -6.4375 1.4375 C-3.09342768 1.18539562 -3.09342768 1.18539562 0 0 Z " fill="#9566F2" transform="translate(96,26)"/>
<path d="M0 0 C1.32 0 2.64 0 4 0 C3.34 1.98 2.68 3.96 2 6 C0.55989519 5.74337755 -0.8770687 5.46909179 -2.3125 5.1875 C-3.11300781 5.03667969 -3.91351563 4.88585938 -4.73828125 4.73046875 C-7 4 -7 4 -10 1 C-7.03 1.33 -4.06 1.66 -1 2 C-0.67 1.34 -0.34 0.68 0 0 Z " fill="#BE96FC" transform="translate(30,31)"/>
<path d="M0 0 C2.51236985 2.40313638 3.95013095 3.78319518 4.09765625 7.3828125 C4.08605469 8.28773437 4.07445312 9.19265625 4.0625 10.125 C4.05347656 11.03507812 4.04445312 11.94515625 4.03515625 12.8828125 C4.02355469 13.58148438 4.01195312 14.28015625 4 15 C3.67 15 3.34 15 3 15 C2.67 12.36 2.34 9.72 2 7 C1.401875 7.350625 0.80375 7.70125 0.1875 8.0625 C-2 9 -2 9 -5 8 C-3.35 7.34 -1.7 6.68 0 6 C0 4.02 0 2.04 0 0 Z " fill="#5713E2" transform="translate(192,20)"/>
<path d="M0 0 C0.66 0 1.32 0 2 0 C2.04254356 1.99954746 2.04080783 4.00041636 2 6 C1 7 1 7 -2.375 7.25 C-6 7 -6 7 -9 4 C-6.03 4 -3.06 4 0 4 C0 2.68 0 1.36 0 0 Z " fill="#D0B8F7" transform="translate(72,41)"/>
<path d="M0 0 C0.66 0 1.32 0 2 0 C2 1.65 2 3.3 2 5 C-0.79870027 6.39935013 -2.90498792 6.25265405 -6 6 C-7.875 4.5 -7.875 4.5 -9 3 C-7.35 2.34 -5.7 1.68 -4 1 C-4 1.66 -4 2.32 -4 3 C-2.68 3 -1.36 3 0 3 C0 2.01 0 1.02 0 0 Z " fill="#C5A6F7" transform="translate(104,42)"/>
<path d="M0 0 C2.97 0 5.94 0 9 0 C9.625 2.375 9.625 2.375 10 5 C9.34 5.66 8.68 6.32 8 7 C7.30251417 8.31747324 6.63040043 9.64914193 6 11 C5.37542727 7.56484998 5 4.50935186 5 1 C3.35 1 1.7 1 0 1 C0 0.67 0 0.34 0 0 Z " fill="#6E31E7" transform="translate(146,21)"/>
<path d="M0 0 C0.33 0 0.66 0 1 0 C1 5.28 1 10.56 1 16 C1.66 16.33 2.32 16.66 3 17 C2.34 17 1.68 17 1 17 C1 17.66 1 18.32 1 19 C1.66 19.33 2.32 19.66 3 20 C2.01 20 1.02 20 0 20 C-0.33 17.69 -0.66 15.38 -1 13 C-1.66 13 -2.32 13 -3 13 C-3 12.34 -3 11.68 -3 11 C-2.34 10.67 -1.68 10.34 -1 10 C-0.53248212 7.64400765 -0.53248212 7.64400765 -0.375 4.9375 C-0.30023438 4.01839844 -0.22546875 3.09929688 -0.1484375 2.15234375 C-0.09945312 1.44207031 -0.05046875 0.73179688 0 0 Z " fill="#9F6DFA" transform="translate(68,24)"/>
<path d="M0 0 C1.4540625 0.0309375 1.4540625 0.0309375 2.9375 0.0625 C2.9375 1.3825 2.9375 2.7025 2.9375 4.0625 C1.6175 4.0625 0.2975 4.0625 -1.0625 4.0625 C-1.0625 7.0325 -1.0625 10.0025 -1.0625 13.0625 C-1.3925 13.0625 -1.7225 13.0625 -2.0625 13.0625 C-2.0625 9.4325 -2.0625 5.8025 -2.0625 2.0625 C-2.7225 1.7325 -3.3825 1.4025 -4.0625 1.0625 C-3.0625 0.0625 -3.0625 0.0625 0 0 Z " fill="#6F36DD" transform="translate(141.0625,16.9375)"/>
<path d="M0 0 C-1 3 -1 3 -3 4 C-4.99960012 4.039992 -7.00047242 4.04346799 -9 4 C-9 3.34 -9 2.68 -9 2 C-9.66 1.67 -10.32 1.34 -11 1 C-7.32589215 -0.17571451 -3.83070817 -0.07366746 0 0 Z " fill="#8656EC" transform="translate(61,29)"/>
<path d="M0 0 C0.33 0.66 0.66 1.32 1 2 C-0.65 2.66 -2.3 3.32 -4 4 C-2.87465895 5.35618499 -2.87465895 5.35618499 0.0625 5.0625 C1.031875 5.041875 2.00125 5.02125 3 5 C2.34 5.66 1.68 6.32 1 7 C0.01 7 -0.98 7 -2 7 C-2 7.66 -2 8.32 -2 9 C-3.32 8.34 -4.64 7.68 -6 7 C-5.8125 5.1875 -5.8125 5.1875 -5 3 C-2.4375 1.25 -2.4375 1.25 0 0 Z " fill="#8B5FE3" transform="translate(51,16)"/>
<path d="M0 0 C2.88437779 1.29299694 4.87219421 2.65941363 7 5 C6.01 5 5.02 5 4 5 C3.67 5.99 3.34 6.98 3 8 C1.68 7.34 0.36 6.68 -1 6 C-1 4 -1 4 0 3 C0 2.01 0 1.02 0 0 Z " fill="#A778FA" transform="translate(111,36)"/>
<path d="M0 0 C-0.33 0.99 -0.66 1.98 -1 3 C-4.0625 4.1875 -4.0625 4.1875 -7 5 C-7 4.01 -7 3.02 -7 2 C-8.32 2.33 -9.64 2.66 -11 3 C-10 1 -10 1 -8.22265625 0.33203125 C-7.15337891 0.07486328 -7.15337891 0.07486328 -6.0625 -0.1875 C-5.35222656 -0.36667969 -4.64195312 -0.54585937 -3.91015625 -0.73046875 C-2 -1 -2 -1 0 0 Z " fill="#6B38D3" transform="translate(190,27)"/>
<path d="M0 0 C0.33 0 0.66 0 1 0 C1 1.65 1 3.3 1 5 C2.32 5.33 3.64 5.66 5 6 C3.95199219 6.07347656 3.95199219 6.07347656 2.8828125 6.1484375 C1.97273437 6.22320313 1.06265625 6.29796875 0.125 6.375 C-1.23238281 6.47941406 -1.23238281 6.47941406 -2.6171875 6.5859375 C-5.17941903 6.79568132 -5.17941903 6.79568132 -7 9 C-7.33 8.01 -7.66 7.02 -8 6 C-4.535 5.505 -4.535 5.505 -1 5 C-0.67 3.35 -0.34 1.7 0 0 Z " fill="#D8B7FB" transform="translate(219,17)"/>
<path d="M0 0 C-2.64 0.99 -5.28 1.98 -8 3 C-8 4.65 -8 6.3 -8 8 C-8.66 8 -9.32 8 -10 8 C-10.625 5.125 -10.625 5.125 -11 2 C-7.51891439 -1.48108561 -4.6345134 -1.15862835 0 0 Z " fill="#E3C9FE" transform="translate(94,33)"/>
<path d="M0 0 C1.98 0 3.96 0 6 0 C6 1.32 6 2.64 6 4 C3.03 4 0.06 4 -3 4 C-2.01 3.34 -1.02 2.68 0 2 C0 1.34 0 0.68 0 0 Z " fill="#5A23D1" transform="translate(230,36)"/>
<path d="M0 0 C-0.33 2.31 -0.66 4.62 -1 7 C-1.99 7.33 -2.98 7.66 -4 8 C-3.979375 7.21625 -3.95875 6.4325 -3.9375 5.625 C-3.81315937 3.01885039 -3.81315937 3.01885039 -5 1 C-2 0 -2 0 0 0 Z " fill="#6215E4" transform="translate(183,29)"/>
<path d="M0 0 C0.91448257 3.08637868 1 5.79630389 1 9 C1.33 9.66 1.66 10.32 2 11 C0.68 10.67 -0.64 10.34 -2 10 C-2.25 3.375 -2.25 3.375 0 0 Z " fill="#885BEA" transform="translate(18,19)"/>
<path d="M0 0 C0.7940625 -0.01675781 1.588125 -0.03351562 2.40625 -0.05078125 C3.0971875 0.06910156 3.788125 0.18898438 4.5 0.3125 C5.16 1.3025 5.82 2.2925 6.5 3.3125 C1.98382401 3.38904536 -2.09085217 3.41478696 -6.5 2.3125 C-4.07477793 -0.11272207 -3.3279321 0.01620746 0 0 Z " fill="#9573E8" transform="translate(90.5,14.6875)"/>
<path d="M0 0 C0 0.33 0 0.66 0 1 C-0.93972656 1.18175781 -0.93972656 1.18175781 -1.8984375 1.3671875 C-2.71570313 1.53476562 -3.53296875 1.70234375 -4.375 1.875 C-5.18710938 2.03742187 -5.99921875 2.19984375 -6.8359375 2.3671875 C-9.18673923 2.86658932 -9.18673923 2.86658932 -11 5 C-11.99 5 -12.98 5 -14 5 C-14 4.34 -14 3.68 -14 3 C-9.62850344 -0.66641647 -5.39741292 -0.31749488 0 0 Z " fill="#EEDEFD" transform="translate(93,22)"/>
<path d="M0 0 C0.8353125 0.37125 0.8353125 0.37125 1.6875 0.75 C1.0275 0.75 0.3675 0.75 -0.3125 0.75 C-0.3125 1.74 -0.3125 2.73 -0.3125 3.75 C-1.6325 3.75 -2.9525 3.75 -4.3125 3.75 C-4.6425 4.41 -4.9725 5.07 -5.3125 5.75 C-5.9725 5.09 -6.6325 4.43 -7.3125 3.75 C-2.88173077 -0.31153846 -2.88173077 -0.31153846 0 0 Z " fill="#5E26D9" transform="translate(185.3125,17.25)"/>
<path d="M0 0 C-0.33 0.99 -0.66 1.98 -1 3 C-5.455 3.495 -5.455 3.495 -10 4 C-10 3.34 -10 2.68 -10 2 C-6.3558226 -0.4294516 -4.28758728 -0.16179575 0 0 Z " fill="#8C51FD" transform="translate(57,18)"/>
<path d="M0 0 C0.66 0 1.32 0 2 0 C0.25 3.875 0.25 3.875 -2 5 C-3.54023996 5.06950541 -5.08334988 5.08452357 -6.625 5.0625 C-7.85089844 5.04896484 -7.85089844 5.04896484 -9.1015625 5.03515625 C-10.04128906 5.01775391 -10.04128906 5.01775391 -11 5 C-11.33 4.34 -11.66 3.68 -12 3 C-8.37 3 -4.74 3 -1 3 C-0.67 2.01 -0.34 1.02 0 0 Z " fill="#ECD6FE" transform="translate(60,43)"/>
<path d="M0 0 C0.66 0 1.32 0 2 0 C2 0.66 2 1.32 2 2 C3.32 2.33 4.64 2.66 6 3 C1.56923077 5.09230769 1.56923077 5.09230769 -1.3125 4.625 C-1.869375 4.41875 -2.42625 4.2125 -3 4 C-1.625 2 -1.625 2 0 0 Z " fill="#8951F4" transform="translate(84,41)"/>
<path d="M0 0 C0.99 0.66 1.98 1.32 3 2 C1.75023244 5.65316671 1.32901247 6.78065836 -2 9 C-2.66 8.01 -3.32 7.02 -4 6 C-2.68 5.34 -1.36 4.68 0 4 C0 2.68 0 1.36 0 0 Z " fill="#DFCBFA" transform="translate(129,17)"/>
<path d="M0 0 C2.97 0 5.94 0 9 0 C9 0.99 9 1.98 9 3 C9.99 3.33 10.98 3.66 12 4 C10.35 4 8.7 4 7 4 C6.67 3.34 6.34 2.68 6 2 C2.97065509 1.34227572 2.97065509 1.34227572 0 1 C0 0.67 0 0.34 0 0 Z " fill="#8451E2" transform="translate(115,41)"/>
<path d="M0 0 C2.97 0.495 2.97 0.495 6 1 C6 1.66 6 2.32 6 3 C5.34 3.66 4.68 4.32 4 5 C1.875 4.625 1.875 4.625 0 4 C0 2.68 0 1.36 0 0 Z " fill="#632DD7" transform="translate(220,17)"/>
<path d="M0 0 C2.97 0.33 5.94 0.66 9 1 C9 1.33 9 1.66 9 2 C7.02 2 5.04 2 3 2 C2.67 2.66 2.34 3.32 2 4 C1.34 3.67 0.68 3.34 0 3 C0 2.01 0 1.02 0 0 Z " fill="#884FF4" transform="translate(114,18)"/>
<path d="M0 0 C0.66 0.33 1.32 0.66 2 1 C1.67 2.32 1.34 3.64 1 5 C-0.65 5.33 -2.3 5.66 -4 6 C-1.125 1.125 -1.125 1.125 0 0 Z " fill="#8D69EC" transform="translate(18,37)"/>
<path d="M0 0 C2.97 1.98 2.97 1.98 6 4 C5.01 4.66 4.02 5.32 3 6 C2.34 5.67 1.68 5.34 1 5 C0.375 2.4375 0.375 2.4375 0 0 Z M0 5 C0.33 5.66 0.66 6.32 1 7 C0.34 6.67 -0.32 6.34 -1 6 C-0.67 5.67 -0.34 5.34 0 5 Z " fill="#AB81F9" transform="translate(19,36)"/>
<path d="M0 0 C0.33 0.99 0.66 1.98 1 3 C-0.4375 5.1875 -0.4375 5.1875 -2 7 C-3.32 6.34 -4.64 5.68 -6 5 C-2.25 2 -2.25 2 0 2 C0 1.34 0 0.68 0 0 Z " fill="#E8D8FC" transform="translate(38,19)"/>
<path d="M0 0 C1.98 0.495 1.98 0.495 4 1 C4 1.99 4 2.98 4 4 C2.35 3.67 0.7 3.34 -1 3 C-0.67 2.01 -0.34 1.02 0 0 Z " fill="#8C53FD" transform="translate(25,28)"/>
<path d="M0 0 C1.32 0 2.64 0 4 0 C4 0.99 4 1.98 4 3 C1.03 3 -1.94 3 -5 3 C-5 2.67 -5 2.34 -5 2 C-3.35 2 -1.7 2 0 2 C0 1.34 0 0.68 0 0 Z " fill="#8F56FC" transform="translate(30,18)"/>
<path d="M0 0 C3 1 3 1 3 1 Z " fill="#FEFEFC" transform="translate(111,49)"/>
<path d="" fill="#FEFEF3" transform="translate(0,0)"/>
<path d="" fill="#FAFEFA" transform="translate(0,0)"/>
</svg>
