<?xml version="1.0" encoding="UTF-8"?>
<svg version="1.1" xmlns="http://www.w3.org/2000/svg" width="245" height="80">
<path d="M0 0 C3.63 0 7.26 0 11 0 C11.268125 1.134375 11.53625 2.26875 11.8125 3.4375 C12.204375 4.613125 12.59625 5.78875 13 7 C13.99 7.33 14.98 7.66 16 8 C16.11214844 8.98613281 16.22429687 9.97226562 16.33984375 10.98828125 C16.94417002 15.22282845 18.20637104 19.14190519 19.5625 23.1875 C20.92175281 27.24279143 22 30.65665409 22 35 C25.46497824 31.87309777 26.56133453 28.20635087 28 23.875 C28.39300293 22.72584106 28.39300293 22.72584106 28.79394531 21.5534668 C29.53793072 19.37177361 30.27060288 17.18660572 31 15 C31.32484375 14.03964844 31.6496875 13.07929687 31.984375 12.08984375 C32.66582615 10.06287425 33.3356574 8.03262438 34 6 C34.66666667 4 35.33333333 2 36 0 C39.63 0 43.26 0 47 0 C46.67 0.99 46.34 1.98 46 3 C45.23399686 16.78805661 49.09121458 30.87764895 53 44 C53.495 45.98 53.495 45.98 54 48 C48.72 48 43.44 48 38 48 C40 43 40 43 42 41 C41.8185339 38.39508339 41.53723614 35.94318377 41.125 33.375 C40.96837891 32.31539062 40.96837891 32.31539062 40.80859375 31.234375 C40.54900874 29.48807586 40.27578567 27.74381401 40 26 C39.34 26 38.68 26 38 26 C37.505 22.04 37.505 22.04 37 18 C36.505 20.475 36.505 20.475 36 23 C35.34 23 34.68 23 34 23 C33.85304687 23.63164063 33.70609375 24.26328125 33.5546875 24.9140625 C31.519189 33.03265997 28.43288547 40.38988173 25 48 C23.35 48 21.7 48 20 48 C18.515 43.545 18.515 43.545 17 39 C15.02 39.495 15.02 39.495 13 40 C13 39.34 13 38.68 13 38 C13.99 38 14.98 38 16 38 C15.59007813 36.91460937 15.18015625 35.82921875 14.7578125 34.7109375 C14.21348243 33.26564731 13.66921491 31.82033356 13.125 30.375 C12.85558594 29.66214844 12.58617188 28.94929688 12.30859375 28.21484375 C10.7865816 24.16851878 9.33627828 20.11262344 8 16 C7.16011547 19.91529148 6.32923187 23.83243972 5.5 27.75 C5.26152344 28.86117187 5.02304687 29.97234375 4.77734375 31.1171875 C4.43896484 32.72207031 4.43896484 32.72207031 4.09375 34.359375 C3.88427734 35.34389648 3.67480469 36.32841797 3.45898438 37.34277344 C2.8865266 40.20750927 2.8865266 40.20750927 3 44 C3.66 44.33 4.32 44.66 5 45 C5 45.99 5 46.98 5 48 C1.37 48 -2.26 48 -6 48 C-6 47.01 -6 46.02 -6 45 C-5.01 45 -4.02 45 -3 45 C-3.02320313 44.40574219 -3.04640625 43.81148437 -3.0703125 43.19921875 C-3.21492224 36.5575001 -2.35795685 30.48699658 -1 24 C-0.62440959 22.10428355 -0.24937783 20.20845629 0.125 18.3125 C0.41567065 16.87479827 0.70694479 15.43721757 1 14 C0.01 13.67 -0.98 13.34 -2 13 C-1.01 12.34 -0.02 11.68 1 11 C1.33343551 8.45792029 1.33343551 8.45792029 1 6 C0.67 5.67 0.34 5.34 0 5 C0 3.35 0 1.7 0 0 Z " fill="#D8C1F9" transform="translate(52,21)"/>
<path d="M0 0 C7.92 0 15.84 0 24 0 C24 0.66 24 1.32 24 2 C25.32 2 26.64 2 28 2 C28 2.66 28 3.32 28 4 C28.598125 4.103125 29.19625 4.20625 29.8125 4.3125 C32.33844795 5.10636936 33.34885407 5.95572409 35 8 C36.79750058 13.39250175 36.76681926 18.81246104 34.5 24.0625 C34.005 25.031875 33.51 26.00125 33 27 C32.34 27 31.68 27 31 27 C31 27.66 31 28.32 31 29 C29.35 29.33 27.7 29.66 26 30 C26 30.66 26 31.32 26 32 C20.06 32 14.12 32 8 32 C8 36.29 8 40.58 8 45 C8.99 45 9.98 45 11 45 C11 46.32 11 47.64 11 49 C7.04 49 3.08 49 -1 49 C-0.34 47.68 0.32 46.36 1 45 C1.1809162 42.14661518 1.25645117 39.394498 1.23046875 36.54296875 C1.23001053 35.72178055 1.22955231 34.90059235 1.2290802 34.05451965 C1.22606317 32.31880243 1.2181933 30.58308778 1.20581055 28.84741211 C1.18763713 26.20742046 1.18530049 23.56778188 1.18554688 20.92773438 C1.18062777 19.23697617 1.17479775 17.54622032 1.16796875 15.85546875 C1.16685593 15.07294235 1.1657431 14.29041595 1.16459656 13.48417664 C1.15502678 12.363153 1.15502678 12.363153 1.14526367 11.21948242 C1.14145187 10.5720256 1.13764008 9.92456879 1.13371277 9.25749207 C0.94989362 6.15404669 0.43966266 3.07763861 0 0 Z M9 4 C8.05779874 9.52708611 7.87883851 14.83758352 7.9375 20.4375 C7.94201172 21.26443359 7.94652344 22.09136719 7.95117188 22.94335938 C7.96284189 24.96227146 7.98077282 26.98114574 8 29 C17.48137994 29.62420472 17.48137994 29.62420472 26 26 C28.97272124 21.54091814 28.74112605 17.22608469 28 12 C25.47412831 8.28548281 24.03253868 7.25326421 19.6875 6.1875 C18.800625 6.125625 17.91375 6.06375 17 6 C17 5.34 17 4.68 17 4 C14.36 4 11.72 4 9 4 Z " fill="#611EE6" transform="translate(110,20)"/>
<path d="M0 0 C1.32 0 2.64 0 4 0 C4.34112809 4.94635735 3.36495106 7.92369636 1.125 12.3125 C-1.43479768 17.57698957 -3.02420946 22.24283581 -4 28 C-2.35 28 -0.7 28 1 28 C1.33 29.65 1.66 31.3 2 33 C4.10940904 30.45416151 5.91781757 28.16810043 7.375 25.1875 C7.91125 24.465625 8.4475 23.74375 9 23 C12.1875 22.6875 12.1875 22.6875 15 23 C15 24.32 15 25.64 15 27 C13.35 27 11.7 27 10 27 C11.12697043 31.96911366 11.12697043 31.96911366 14 36 C14.96041171 34.89764064 15.91824407 33.79303376 16.875 32.6875 C17.40867188 32.07261719 17.94234375 31.45773438 18.4921875 30.82421875 C20.1640447 28.86501788 20.1640447 28.86501788 22 26 C22.99 26.66 23.98 27.32 25 28 C24.34 28 23.68 28 23 28 C23 28.66 23 29.32 23 30 C22.34 30 21.68 30 21 30 C20.731875 30.763125 20.46375 31.52625 20.1875 32.3125 C19 35 19 35 17.5 36.34375 C15.52162652 38.52820405 15.2991731 40.30489779 14.8125 43.1875 C14.57466797 44.53908203 14.57466797 44.53908203 14.33203125 45.91796875 C14.22246094 46.60503906 14.11289063 47.29210938 14 48 C13.34 48 12.68 48 12 48 C12 48.66 12 49.32 12 50 C9.03 50.495 9.03 50.495 6 51 C6.28359887 49.5608866 6.57721399 48.12374482 6.875 46.6875 C7.03742188 45.88699219 7.19984375 45.08648437 7.3671875 44.26171875 C8 42 8 42 10 39 C9.34 37.68 8.68 36.36 8 35 C4.42403469 36.71198339 1.19995767 38.78659241 -2.09765625 40.9765625 C-4 42 -4 42 -7 42 C-7 42.66 -7 43.32 -7 44 C-8.32 44 -9.64 44 -11 44 C-11 42.35 -11 40.7 -11 39 C-12.485 39.495 -12.485 39.495 -14 40 C-14.556875 39.319375 -15.11375 38.63875 -15.6875 37.9375 C-16.450625 37.298125 -17.21375 36.65875 -18 36 C-20.70705512 36.14025199 -20.70705512 36.14025199 -23 37 C-24.42662219 34.14675563 -24.31033868 32.16545451 -24 29 C-22.3125 26.125 -22.3125 26.125 -20 24 C-17.25 23.6875 -17.25 23.6875 -15 24 C-13.82428549 27.67410785 -13.92633254 31.16929183 -14 35 C-10.93571279 34.36747101 -10.93571279 34.36747101 -10.12109375 32.28515625 C-8.62787138 27.43005039 -7.47078449 22.6150998 -6.52734375 17.625 C-5.95307888 14.76643711 -5.28732181 11.94917619 -4.5625 9.125 C-4.33691406 8.24070312 -4.11132812 7.35640625 -3.87890625 6.4453125 C-2.92048626 3.77877511 -1.98988975 2.02281937 0 0 Z " fill="#555555" transform="translate(199,12)"/>
<path d="M0 0 C12.21 0 24.42 0 37 0 C39 6 39 6 39 10 C37.68 10 36.36 10 35 10 C33.5393715 7.35261084 33 6.10551666 33 3 C29.37 3 25.74 3 22 3 C22.15992432 4.15338867 22.31984863 5.30677734 22.48461914 6.49511719 C23.00726212 10.68754148 23.18221257 14.85623543 23.24609375 19.078125 C23.2789887 20.5833401 23.31220097 22.08854829 23.34570312 23.59375 C23.39328493 25.93290129 23.43786648 28.27201623 23.47680664 30.61132812 C23.51651717 32.89218668 23.56800394 35.17254408 23.62109375 37.453125 C23.6295079 38.15109192 23.63792206 38.84905884 23.64659119 39.56817627 C23.74635749 43.49229753 24.18648283 45.37296566 26 49 C21.71 49 17.42 49 13 49 C13.33 47.68 13.66 46.36 14 45 C14.10931529 43.56600771 14.1750065 42.12826302 14.20532227 40.69042969 C14.22526749 39.84986023 14.24521271 39.00929077 14.26576233 38.14324951 C14.28247482 37.24519592 14.29918732 36.34714233 14.31640625 35.421875 C14.33718735 34.4953009 14.35796844 33.56872681 14.37937927 32.61407471 C14.44466961 29.65945728 14.50366431 26.70475232 14.5625 23.75 C14.60570473 21.74478268 14.64931965 19.73957415 14.69335938 17.734375 C14.80032999 12.82300596 14.90165518 7.91154903 15 3 C11.37 3 7.74 3 4 3 C4 4.65 4 6.3 4 8 C3.34 8 2.68 8 2 8 C2 8.99 2 9.98 2 11 C1.01 11 0.02 11 -1 11 C-1.125 3.375 -1.125 3.375 0 0 Z " fill="#5619C8" transform="translate(5,20)"/>
<path d="M0 0 C3.63 0 7.26 0 11 0 C10.67 0.99 10.34 1.98 10 3 C9.23399686 16.78805661 13.09121458 30.87764895 17 44 C17.33 45.32 17.66 46.64 18 48 C12.72 48 7.44 48 2 48 C4 43 4 43 6 41 C5.99660465 38.69240756 5.99660465 38.69240756 5.5390625 36.0546875 C5.39726563 35.05953125 5.25546875 34.064375 5.109375 33.0390625 C4.94953125 31.99492188 4.7896875 30.95078125 4.625 29.875 C3.62819397 23.18457308 2.7888888 16.77179782 3 10 C2.01 10 1.02 10 0 10 C-0.33 12.31 -0.66 14.62 -1 17 C-1.66 17 -2.32 17 -3 17 C-3.10957031 17.64066406 -3.21914062 18.28132813 -3.33203125 18.94140625 C-4.32460328 24.3561691 -5.62458653 29.03322639 -8 34 C-8.99 33.34 -9.98 32.68 -11 32 C-10.60167969 30.87722656 -10.20335938 29.75445312 -9.79296875 28.59765625 C-7.1320245 21.08543817 -4.4760277 13.5756609 -2 6 C-1.33333333 4 -0.66666667 2 0 0 Z " fill="#5C18DB" transform="translate(88,21)"/>
<path d="M0 0 C0.66 0 1.32 0 2 0 C2.268125 1.134375 2.53625 2.26875 2.8125 3.4375 C3.204375 4.613125 3.59625 5.78875 4 7 C4.99 7.33 5.98 7.66 7 8 C7.11214844 8.98613281 7.22429687 9.97226562 7.33984375 10.98828125 C7.94417002 15.22282845 9.20637104 19.14190519 10.5625 23.1875 C11.92175281 27.24279143 13 30.65665409 13 35 C17.25632126 33.46135755 18.71797746 32.60011773 20.6796875 28.42578125 C21.10143906 27.06167856 21.49942633 25.69003219 21.875 24.3125 C22.08640625 23.61060547 22.2978125 22.90871094 22.515625 22.18554688 C23.03118393 20.46311137 23.51846296 18.73225493 24 17 C24.66 17 25.32 17 26 17 C26.33 14.69 26.66 12.38 27 10 C27.99 10 28.98 10 30 10 C30.66 16.27 31.32 22.54 32 29 C31.67 28.01 31.34 27.02 31 26 C30.34 26 29.68 26 29 26 C28.67 23.36 28.34 20.72 28 18 C27.67 19.65 27.34 21.3 27 23 C26.34 23 25.68 23 25 23 C24.85304688 23.63164063 24.70609375 24.26328125 24.5546875 24.9140625 C22.519189 33.03265997 19.43288547 40.38988173 16 48 C14.35 48 12.7 48 11 48 C10.01 45.03 9.02 42.06 8 39 C6.02 39.495 6.02 39.495 4 40 C4 39.34 4 38.68 4 38 C4.99 38 5.98 38 7 38 C7 36.35 7 34.7 7 33 C7.99 33.33 8.98 33.66 10 34 C9.71125 32.89140625 9.4225 31.7828125 9.125 30.640625 C8.74974938 29.17714757 8.37476322 27.71360232 8 26.25 C7.80921875 25.52039063 7.6184375 24.79078125 7.421875 24.0390625 C6.53484036 20.55428354 6 17.61876278 6 14 C5.34 14 4.68 14 4 14 C2.68 9.38 1.36 4.76 0 0 Z " fill="#5F26D2" transform="translate(61,21)"/>
<path d="M0 0 C1.98 0 3.96 0 6 0 C6 1.65 6 3.3 6 5 C4.68 5 3.36 5 2 5 C-0.27022718 13.79983296 -2.01942707 22.74371065 -3.5703125 31.6953125 C-3.96728446 33.82452572 -4.4498978 35.90575128 -5 38 C-5.66 38 -6.32 38 -7 38 C-7.33 43.28 -7.66 48.56 -8 54 C-5.855 52.9275 -3.71 51.855 -1.5 50.75 C-0.80205322 50.40283936 -0.10410645 50.05567871 0.61499023 49.69799805 C3.27238917 48.37576382 5.91740322 47.04416191 8.53515625 45.64453125 C12.1597062 43.7100412 14.84866182 42.48108273 19 43 C19 43.99 19 44.98 19 46 C18.23816406 46.14695313 17.47632813 46.29390625 16.69140625 46.4453125 C9.22226664 48.06782223 4.12528696 50.54303176 -2 55 C-5.91827019 57.21788878 -7.4537811 58 -12 58 C-12 57.34 -12 56.68 -12 56 C-12.66 55.67 -13.32 55.34 -14 55 C-13.79503906 54.27554688 -13.59007812 53.55109375 -13.37890625 52.8046875 C-12.00945777 47.89039871 -10.68467363 43.06658487 -10 38 C-9.34 38 -8.68 38 -8 38 C-8.02320313 37.31292969 -8.04640625 36.62585937 -8.0703125 35.91796875 C-8.08835938 35.01691406 -8.10640625 34.11585937 -8.125 33.1875 C-8.14820313 32.29417969 -8.17140625 31.40085937 -8.1953125 30.48046875 C-8 28 -8 28 -6 25 C-6 22.97253541 -6.00365509 20.94446201 -6.06640625 18.91796875 C-5.98440131 16.54947324 -5.04809278 15.09618557 -4 13 C-4.30803455 9.81477796 -4.30803455 9.81477796 -5 7 C-4.34 6.67 -3.68 6.34 -3 6 C-3 5.34 -3 4.68 -3 4 C-2.34 4 -1.68 4 -1 4 C-0.67 2.68 -0.34 1.36 0 0 Z " fill="#6E6F6E" transform="translate(164,11)"/>
<path d="M0 0 C0.99 0 1.98 0 3 0 C2.67 0.99 2.34 1.98 2 3 C1.23399686 16.78805661 5.09121458 30.87764895 9 44 C9.33 45.32 9.66 46.64 10 48 C4.72 48 -0.56 48 -6 48 C-4 43 -4 43 -2 41 C-1.97831363 38.09324817 -1.97831363 38.09324817 -2.375 34.875 C-2.48585938 33.77929688 -2.59671875 32.68359375 -2.7109375 31.5546875 C-2.80632812 30.71164063 -2.90171875 29.86859375 -3 29 C-2.34 29.33 -1.68 29.66 -1 30 C-0.59270772 32.32156597 -0.25561323 34.6568787 0 37 C1.54643228 31.01909634 0.45360126 25.49881786 -0.4375 19.5 C-2.37853045 6.09078525 -2.37853045 6.09078525 -2 2 C-1.34 1.34 -0.68 0.68 0 0 Z " fill="#703DD9" transform="translate(96,21)"/>
<path d="M0 0 C0.66 0.33 1.32 0.66 2 1 C2 14.86 2 28.72 2 43 C2.99 43 3.98 43 5 43 C5 29.14 5 15.28 5 1 C5.66 0.67 6.32 0.34 7 0 C7.74539573 5.37586156 8.16394108 10.64867745 8.24609375 16.078125 C8.2789887 17.5833401 8.31220097 19.08854829 8.34570312 20.59375 C8.39328493 22.93290129 8.43786648 25.27201623 8.47680664 27.61132812 C8.51651717 29.89218668 8.56800394 32.17254408 8.62109375 34.453125 C8.6295079 35.15109192 8.63792206 35.84905884 8.64659119 36.56817627 C8.74635749 40.49229753 9.18648283 42.37296566 11 46 C6.71 46 2.42 46 -2 46 C-1.67 44.68 -1.34 43.36 -1 42 C-0.89068471 40.56600771 -0.8249935 39.12826302 -0.79467773 37.69042969 C-0.7647599 36.4295755 -0.7647599 36.4295755 -0.73423767 35.14324951 C-0.71752518 34.24519592 -0.70081268 33.34714233 -0.68359375 32.421875 C-0.66281265 31.4953009 -0.64203156 30.56872681 -0.62062073 29.61407471 C-0.55533039 26.65945728 -0.49633569 23.70475232 -0.4375 20.75 C-0.39429527 18.74478268 -0.35068035 16.73957415 -0.30664062 14.734375 C-0.19967001 9.82300596 -0.09834482 4.91154903 0 0 Z " fill="#9268DF" transform="translate(20,23)"/>
<path d="M0 0 C7.92 0 15.84 0 24 0 C24 0.66 24 1.32 24 2 C25.32 2 26.64 2 28 2 C28 2.66 28 3.32 28 4 C28.61875 4.061875 29.2375 4.12375 29.875 4.1875 C32 5 32 5 33.25 7.5625 C33.4975 8.366875 33.745 9.17125 34 10 C33.34 10 32.68 10 32 10 C32 9.34 32 8.68 32 8 C31.34 8 30.68 8 30 8 C29.34 7.34 28.68 6.68 28 6 C28 7.98 28 9.96 28 12 C27.34 11.67 26.68 11.34 26 11 C26 10.34 26 9.68 26 9 C23.03 8.01 20.06 7.02 17 6 C17 5.34 17 4.68 17 4 C14.36 4 11.72 4 9 4 C9 3.67 9 3.34 9 3 C14.94 2.505 14.94 2.505 21 2 C14.4 1.67 7.8 1.34 1 1 C1.66 1.99 2.32 2.98 3 4 C3.2784729 5.95524597 3.2784729 5.95524597 3.31884766 8.19604492 C3.33871735 9.03668991 3.35858704 9.8773349 3.37905884 10.74345398 C3.39061005 11.64666885 3.40216125 12.54988373 3.4140625 13.48046875 C3.43342865 14.40845779 3.4527948 15.33644684 3.4727478 16.29255676 C3.53254244 19.25744425 3.57892855 22.22237057 3.625 25.1875 C3.66317988 27.19728259 3.70223162 29.20704881 3.7421875 31.21679688 C3.83824393 36.14439842 3.92227549 41.07207658 4 46 C4.99 46 5.98 46 7 46 C7 41.05 7 36.1 7 31 C13.27 30.67 19.54 30.34 26 30 C26 30.66 26 31.32 26 32 C20.06 32 14.12 32 8 32 C8 36.29 8 40.58 8 45 C8.99 45 9.98 45 11 45 C11 46.32 11 47.64 11 49 C7.04 49 3.08 49 -1 49 C-0.34 47.68 0.32 46.36 1 45 C1.1809162 42.14661518 1.25645117 39.394498 1.23046875 36.54296875 C1.23001053 35.72178055 1.22955231 34.90059235 1.2290802 34.05451965 C1.22606317 32.31880243 1.2181933 30.58308778 1.20581055 28.84741211 C1.18763713 26.20742046 1.18530049 23.56778188 1.18554688 20.92773438 C1.18062777 19.23697617 1.17479775 17.54622032 1.16796875 15.85546875 C1.16685593 15.07294235 1.1657431 14.29041595 1.16459656 13.48417664 C1.15502678 12.363153 1.15502678 12.363153 1.14526367 11.21948242 C1.14145187 10.5720256 1.13764008 9.92456879 1.13371277 9.25749207 C0.94989362 6.15404669 0.43966266 3.07763861 0 0 Z " fill="#8F67DA" transform="translate(110,20)"/>
<path d="M0 0 C1.32 0 2.64 0 4 0 C4.34112809 4.94635735 3.36495106 7.92369636 1.125 12.3125 C-1.43479768 17.57698957 -3.02420946 22.24283581 -4 28 C-2.35 28 -0.7 28 1 28 C1.93423645 31.01031744 2.04449911 31.86650268 1 35 C0.34 35 -0.32 35 -1 35 C-1.33 34.34 -1.66 33.68 -2 33 C-4.475 35.475 -4.475 35.475 -7 38 C-10.47833396 26.40555348 -7.32398654 15.07925376 -3 4 C-1.62109375 1.625 -1.62109375 1.625 0 0 Z " fill="#515151" transform="translate(199,12)"/>
<path d="M0 0 C2.64 0 5.28 0 8 0 C10.22656164 4.74354436 11.46148032 8.72250715 12 14 C12.66 14 13.32 14 14 14 C14.67449966 16.39387157 15.33976641 18.78969221 16 21.1875 C16.19078125 21.86103516 16.3815625 22.53457031 16.578125 23.22851562 C17.5825836 26.90555156 18.23704741 30.1850182 18 34 C16.68 34 15.36 34 14 34 C12.54815522 29.46298506 11.76490804 25.81938524 12 21 C11.34 21 10.68 21 10 21 C8.68 17.7 7.36 14.4 6 11 C5.34 11 4.68 11 4 11 C3.67 12.98 3.34 14.96 3 17 C2.67 17 2.34 17 2 17 C1.93941406 15.94039062 1.87882812 14.88078125 1.81640625 13.7890625 C1.73199873 12.40102779 1.64735083 11.01300768 1.5625 9.625 C1.52318359 8.92632812 1.48386719 8.22765625 1.44335938 7.5078125 C1.25719866 3.62639508 1.25719866 3.62639508 0 0 Z " fill="#5F25D3" transform="translate(53,21)"/>
<path d="M0 0 C1.11375 0.1546875 1.11375 0.1546875 2.25 0.3125 C3.42571451 3.98660785 3.32366746 7.48179183 3.25 11.3125 C4.24 10.9825 5.23 10.6525 6.25 10.3125 C6.58 9.3225 6.91 8.3325 7.25 7.3125 C7.91 7.3125 8.57 7.3125 9.25 7.3125 C9.91 9.2925 10.57 11.2725 11.25 13.3125 C12.9 11.6625 14.55 10.0125 16.25 8.3125 C16.25 9.3025 16.25 10.2925 16.25 11.3125 C18.23 9.9925 20.21 8.6725 22.25 7.3125 C19.93355123 12.91058454 15.59050481 14.87444346 10.25 17.3125 C9.59 17.3125 8.93 17.3125 8.25 17.3125 C8.25 17.9725 8.25 18.6325 8.25 19.3125 C7.59 19.3125 6.93 19.3125 6.25 19.3125 C6.25 17.9925 6.25 16.6725 6.25 15.3125 C5.26 15.6425 4.27 15.9725 3.25 16.3125 C2.693125 15.631875 2.13625 14.95125 1.5625 14.25 C0.799375 13.610625 0.03625 12.97125 -0.75 12.3125 C-3.45705512 12.45275199 -3.45705512 12.45275199 -5.75 13.3125 C-7.17662219 10.45925563 -7.06033868 8.47795451 -6.75 5.3125 C-3.89134463 0.44219825 -3.89134463 0.44219825 0 0 Z " fill="#615E5E" transform="translate(181.75,35.6875)"/>
<path d="M0 0 C1.32 0.33 2.64 0.66 4 1 C4 1.66 4 2.32 4 3 C4.66 3 5.32 3 6 3 C6.33 3.33 6.66 3.66 7 4 C7.66 3.67 8.32 3.34 9 3 C10.79750058 8.39250175 10.76681926 13.81246104 8.5 19.0625 C8.005 20.031875 7.51 21.00125 7 22 C6.34 22 5.68 22 5 22 C5 22.66 5 23.32 5 24 C2.75 24.6875 2.75 24.6875 0 25 C-2.3125 23.5625 -2.3125 23.5625 -4 22 C-3.360625 21.896875 -2.72125 21.79375 -2.0625 21.6875 C-1.0415625 21.3471875 -1.0415625 21.3471875 0 21 C1.24078003 17.2776599 1.14555459 13.81203967 1.125 9.9375 C1.12886719 9.20466797 1.13273438 8.47183594 1.13671875 7.71679688 C1.21095757 3.72879812 1.21095757 3.72879812 0 0 Z " fill="#8E60E4" transform="translate(136,25)"/>
<path d="M0 0 C0.99 0 1.98 0 3 0 C3.66 6.27 4.32 12.54 5 19 C4.67 18.01 4.34 17.02 4 16 C3.34 16 2.68 16 2 16 C1.67 13.36 1.34 10.72 1 8 C0.67 9.65 0.34 11.3 0 13 C-0.66 13 -1.32 13 -2 13 C-2.22042969 13.94746094 -2.22042969 13.94746094 -2.4453125 14.9140625 C-4.480811 23.03265997 -7.56711453 30.38988173 -11 38 C-12.65 38 -14.3 38 -16 38 C-15.06994141 37.17435547 -15.06994141 37.17435547 -14.12109375 36.33203125 C-11.789419 33.76847724 -11.05150012 31.98264786 -10.0625 28.6875 C-9.73894531 27.64464844 -9.41539063 26.60179687 -9.08203125 25.52734375 C-8.54642578 23.78130859 -8.54642578 23.78130859 -8 22 C-7.09767971 19.24516362 -6.17375677 16.4977101 -5.25 13.75 C-4.81733307 12.45325015 -4.38500937 11.1563857 -3.953125 9.859375 C-3.63859375 8.91578125 -3.3240625 7.9721875 -3 7 C-2.34 7 -1.68 7 -1 7 C-0.67 4.69 -0.34 2.38 0 0 Z " fill="#DBC3F9" transform="translate(88,31)"/>
<path d="M0 0 C0.99 0 1.98 0 3 0 C2.67 0.99 2.34 1.98 2 3 C1.23399686 16.78805661 5.09121458 30.87764895 9 44 C9.33 45.32 9.66 46.64 10 48 C4.72 48 -0.56 48 -6 48 C-5.34 46.35 -4.68 44.7 -4 43 C-2.515 42.505 -2.515 42.505 -1 42 C-1 42.99 -1 43.98 -1 45 C-1.66 45 -2.32 45 -3 45 C-3 45.66 -3 46.32 -3 47 C0.63 47 4.26 47 8 47 C7.54753906 46.04867187 7.09507813 45.09734375 6.62890625 44.1171875 C4.68792893 39.58330154 3.82311676 34.95762479 2.9375 30.125 C2.61423395 28.41909002 2.29002073 26.71335925 1.96484375 25.0078125 C1.80773926 24.17548096 1.65063477 23.34314941 1.48876953 22.4855957 C1.00757259 20.03850974 0.47678836 17.60801217 -0.07421875 15.17578125 C-0.75739017 12.14673199 -1.37064129 9.14757892 -1.75 6.0625 C-1.89695312 4.96615234 -1.89695312 4.96615234 -2.046875 3.84765625 C-2 2 -2 2 0 0 Z " fill="#EBDBFD" transform="translate(96,21)"/>
<path d="M0 0 C0.33 0 0.66 0 1 0 C1.08159574 4.16138263 0.98248524 7.9472484 0 12 C5.59638922 10.41435639 10.10583822 8.44221002 15.0625 5.375 C19.91364345 2.42456064 23.34342118 1.10878036 29 1 C29 1.99 29 2.98 29 4 C28.23816406 4.14695312 27.47632813 4.29390625 26.69140625 4.4453125 C19.22226664 6.06782223 14.12528696 8.54303176 8 13 C4.08172981 15.21788878 2.5462189 16 -2 16 C-2 15.34 -2 14.68 -2 14 C-2.66 13.67 -3.32 13.34 -4 13 C-2.68 8.71 -1.36 4.42 0 0 Z " fill="#737373" transform="translate(154,53)"/>
<path d="M0 0 C12.21 0 24.42 0 37 0 C39 6 39 6 39 10 C37.68 10 36.36 10 35 10 C34.34 8.35 33.68 6.7 33 5 C33.66 5 34.32 5 35 5 C35.33 3.68 35.66 2.36 36 1 C25.605 1.495 25.605 1.495 15 2 C15 2.33 15 2.66 15 3 C11.37 3 7.74 3 4 3 C4 4.65 4 6.3 4 8 C3.34 8 2.68 8 2 8 C2 8.99 2 9.98 2 11 C1.01 11 0.02 11 -1 11 C-1.125 3.375 -1.125 3.375 0 0 Z " fill="#8965D5" transform="translate(5,20)"/>
<path d="M0 0 C2 2 2 2 2.13525391 4.58203125 C2.08288574 5.64808594 2.03051758 6.71414062 1.9765625 7.8125 C1.89921875 9.54886719 1.89921875 9.54886719 1.8203125 11.3203125 C1.75585938 12.53460938 1.69140625 13.74890625 1.625 15 C1.53992187 16.82144531 1.53992187 16.82144531 1.453125 18.6796875 C1.3480631 20.92601096 1.23861032 23.17213599 1.12353516 25.41796875 C1.05051762 26.94412177 1 28.47210125 1 30 C-1.31 30 -3.62 30 -6 30 C-6 29.34 -6 28.68 -6 28 C-5.34 28 -4.68 28 -4 28 C-4.02320313 27.40574219 -4.04640625 26.81148437 -4.0703125 26.19921875 C-4.26794704 17.12214674 -2.68978214 8.64572829 0 0 Z " fill="#895CE1" transform="translate(53,38)"/>
<path d="M0 0 C0.66 0 1.32 0 2 0 C1.67 2.31 1.34 4.62 1 7 C1.66 7 2.32 7 3 7 C3 7.99 3 8.98 3 10 C2.01 10 1.02 10 0 10 C-0.33 12.31 -0.66 14.62 -1 17 C-1.66 17 -2.32 17 -3 17 C-3.10957031 17.64066406 -3.21914062 18.28132813 -3.33203125 18.94140625 C-4.32460328 24.3561691 -5.62458653 29.03322639 -8 34 C-8.99 33.34 -9.98 32.68 -11 32 C-10.60167969 30.87722656 -10.20335938 29.75445312 -9.79296875 28.59765625 C-7.1320245 21.08543817 -4.4760277 13.5756609 -2 6 C-1.33333333 4 -0.66666667 2 0 0 Z " fill="#6833CD" transform="translate(88,21)"/>
<path d="M0 0 C0.66 0 1.32 0 2 0 C2.66 1.98 3.32 3.96 4 6 C5.65 4.35 7.3 2.7 9 1 C9 1.99 9 2.98 9 4 C10.98 2.68 12.96 1.36 15 0 C12.68355123 5.59808454 8.34050481 7.56194346 3 10 C2.34 10 1.68 10 1 10 C1 10.66 1 11.32 1 12 C0.34 12 -0.32 12 -1 12 C-1 10.68 -1 9.36 -1 8 C-1.99 8.33 -2.98 8.66 -4 9 C-4.66 8.34 -5.32 7.68 -6 7 C-5.67 6.01 -5.34 5.02 -5 4 C-3.66666667 3.66666667 -2.33333333 3.33333333 -1 3 C-0.67 2.01 -0.34 1.02 0 0 Z " fill="#383838" transform="translate(189,43)"/>
<path d="M0 0 C0.66 0 1.32 0 2 0 C2.33 13.86 2.66 27.72 3 42 C2.01 42 1.02 42 0 42 C0 28.14 0 14.28 0 0 Z " fill="#5C15EE" transform="translate(22,24)"/>
<path d="M0 0 C0 0.66 0 1.32 0 2 C-5.94 2 -11.88 2 -18 2 C-18 6.29 -18 10.58 -18 15 C-17.01 15 -16.02 15 -15 15 C-15 16.32 -15 17.64 -15 19 C-18.96 19 -22.92 19 -27 19 C-26.34 17.68 -25.68 16.36 -25 15 C-24.34 15 -23.68 15 -23 15 C-23 13.02 -23 11.04 -23 9 C-22.67 9 -22.34 9 -22 9 C-22 11.31 -22 13.62 -22 16 C-21.01 16 -20.02 16 -19 16 C-19 11.05 -19 6.1 -19 1 C-16.20837429 0.83262201 -13.41670379 0.66606598 -10.625 0.5 C-9.8309375 0.45230469 -9.036875 0.40460937 -8.21875 0.35546875 C-2.2265625 0 -2.2265625 0 0 0 Z " fill="#865CDB" transform="translate(136,50)"/>
<path d="M0 0 C1.32 0.33 2.64 0.66 4 1 C4 1.66 4 2.32 4 3 C4.66 3 5.32 3 6 3 C6 3.66 6 4.32 6 5 C6.66 5 7.32 5 8 5 C8.76173392 9.3164922 9.16063604 12.74433453 8 17 C7.01 17.33 6.02 17.66 5 18 C4.80664062 17.28714844 4.61328125 16.57429688 4.4140625 15.83984375 C2.97587225 10.54986672 1.52147368 5.26663967 0 0 Z " fill="#5917D8" transform="translate(136,25)"/>
<path d="M0 0 C0.66 0 1.32 0 2 0 C2.268125 1.134375 2.53625 2.26875 2.8125 3.4375 C3.204375 4.613125 3.59625 5.78875 4 7 C4.99 7.33 5.98 7.66 7 8 C7.11085938 8.98613281 7.22171875 9.97226562 7.3359375 10.98828125 C8.04438443 15.96117816 9.71744115 20.57344087 11.359375 25.30273438 C13.45054493 31.61830791 13.45054493 31.61830791 12 35 C8.72000051 28.12155447 6 21.74313635 6 14 C5.34 14 4.68 14 4 14 C2.68 9.38 1.36 4.76 0 0 Z " fill="#EBD9FD" transform="translate(61,21)"/>
<path d="M0 0 C0.66 0 1.32 0 2 0 C2.3492168 4.96333664 1.35371852 7.87242484 -0.9375 12.25 C-3.70798072 17.92785578 -4.97155469 22.69936445 -5 29 C-5.66 29 -6.32 29 -7 29 C-7.66 30.32 -8.32 31.64 -9 33 C-8.20280149 23.40982096 -7.25039197 15.33650023 -2 7 C-1.34 7 -0.68 7 0 7 C0 4.69 0 2.38 0 0 Z " fill="#DCDCDC" transform="translate(201,12)"/>
<path d="M0 0 C0.33 0 0.66 0 1 0 C0.85769192 1.41702513 0.71099254 2.8336096 0.5625 4.25 C0.48128906 5.03890625 0.40007812 5.8278125 0.31640625 6.640625 C0.02365007 8.82364639 -0.42064419 10.8773182 -1 13 C-1.66 13 -2.32 13 -3 13 C-3.33 18.28 -3.66 23.56 -4 29 C-4.66 29 -5.32 29 -6 29 C-6 23.72 -6 18.44 -6 13 C-5.34 13 -4.68 13 -4 13 C-4 9.7 -4 6.4 -4 3 C-3.34 2.67 -2.68 2.34 -2 2 C-2 3.32 -2 4.64 -2 6 C-1.34 4.02 -0.68 2.04 0 0 Z " fill="#B3B3B4" transform="translate(160,36)"/>
<path d="M0 0 C3.29159316 -0.05790353 6.58305603 -0.09356261 9.875 -0.125 C10.81214844 -0.14175781 11.74929687 -0.15851562 12.71484375 -0.17578125 C13.61074219 -0.18222656 14.50664063 -0.18867188 15.4296875 -0.1953125 C16.25710449 -0.20578613 17.08452148 -0.21625977 17.93701172 -0.22705078 C20 0 20 0 22 2 C15.73 1.67 9.46 1.34 3 1 C3 13.21 3 25.42 3 38 C2.67 38 2.34 38 2 38 C1.97494385 36.95545654 1.9498877 35.91091309 1.92407227 34.8347168 C1.82991461 30.96007984 1.72971428 27.08561866 1.62768555 23.21118164 C1.58436833 21.53414013 1.54269093 19.85705542 1.50268555 18.17993164 C1.44490515 15.76956159 1.3812332 13.3594083 1.31640625 10.94921875 C1.29969376 10.19912033 1.28298126 9.44902191 1.26576233 8.67619324 C1.17655767 5.54322008 0.99763547 2.9929064 0 0 Z " fill="#5924C2" transform="translate(111,21)"/>
<path d="M0 0 C0.99 0 1.98 0 3 0 C2.67 0.99 2.34 1.98 2 3 C1.65920206 9.13436289 2.554848 14.80714389 3.5546875 20.85546875 C4.09084222 24.64147354 4.14957838 28.18575136 4 32 C3.67 32 3.34 32 3 32 C2.87939209 31.17592651 2.87939209 31.17592651 2.75634766 30.33520508 C2.38555309 27.82665553 2.00536472 25.31961554 1.625 22.8125 C1.49867187 21.94818359 1.37234375 21.08386719 1.2421875 20.19335938 C0.5757106 15.84459762 -0.22374453 12.05350608 -2 8 C-2.25 4.8125 -2.25 4.8125 -2 2 C-1.34 1.34 -0.68 0.68 0 0 Z " fill="#DAC5F9" transform="translate(96,21)"/>
<path d="M0 0 C0.99 0 1.98 0 3 0 C3.66 6.27 4.32 12.54 5 19 C4.67 18.01 4.34 17.02 4 16 C3.34 16 2.68 16 2 16 C1.67 13.36 1.34 10.72 1 8 C0.67 9.65 0.34 11.3 0 13 C-0.66 13 -1.32 13 -2 13 C-2.33 13.66 -2.66 14.32 -3 15 C-2.44854729 9.76119922 -1.57077907 5.02649303 0 0 Z " fill="#D6BFF3" transform="translate(88,31)"/>
<path d="M0 0 C0.33 0 0.66 0 1 0 C1.09733092 7.09434233 1.10087193 13.98194143 0 21 C0.66 21.33 1.32 21.66 2 22 C2 22.99 2 23.98 2 25 C-1.63 25 -5.26 25 -9 25 C-8.505 23.515 -8.505 23.515 -8 22 C-8 22.66 -8 23.32 -8 24 C-5.69 24 -3.38 24 -1 24 C-1.33 23.34 -1.66 22.68 -2 22 C-2.64013945 14.52674412 -1.40823445 7.31778971 0 0 Z " fill="#DDC6FA" transform="translate(55,44)"/>
<path d="M0 0 C3 2 3 2 3.51171875 4.1640625 C3.56972656 4.97617187 3.62773438 5.78828125 3.6875 6.625 C3.75324219 7.44226563 3.81898437 8.25953125 3.88671875 9.1015625 C3.92410156 9.72804688 3.96148437 10.35453125 4 11 C4.66 10.67 5.32 10.34 6 10 C5.34 14.29 4.68 18.58 4 23 C2.35649921 19.71299843 1.58678331 17.52069985 1 14 C0.01 13.67 -0.98 13.34 -2 13 C-1.01 12.34 -0.02 11.68 1 11 C1.33343551 8.45792029 1.33343551 8.45792029 1 6 C0.67 5.67 0.34 5.34 0 5 C-0.04063832 3.33382885 -0.042721 1.66611905 0 0 Z " fill="#AF8EEA" transform="translate(52,21)"/>
<path d="M0 0 C4.95 0.33 9.9 0.66 15 1 C15 1.33 15 1.66 15 2 C11.37 2 7.74 2 4 2 C4 3.65 4 5.3 4 7 C3.34 7 2.68 7 2 7 C2 7.99 2 8.98 2 10 C1.01 10 0.02 10 -1 10 C-1.125 2.25 -1.125 2.25 0 0 Z " fill="#784AD3" transform="translate(5,21)"/>
<path d="M0 0 C1.98 0 3.96 0 6 0 C6 1.65 6 3.3 6 5 C4.35 5 2.7 5 1 5 C0.690625 5.61875 0.38125 6.2375 0.0625 6.875 C-0.625 8.25 -1.3125 9.625 -2 11 C-4 10 -4 10 -5 7 C-4.34 6.67 -3.68 6.34 -3 6 C-3 5.34 -3 4.68 -3 4 C-2.34 4 -1.68 4 -1 4 C-0.67 2.68 -0.34 1.36 0 0 Z " fill="#848484" transform="translate(164,11)"/>
<path d="M0 0 C0.78375 0.04125 1.5675 0.0825 2.375 0.125 C2.375 3.095 2.375 6.065 2.375 9.125 C3.035 9.455 3.695 9.785 4.375 10.125 C3.488125 10.104375 2.60125 10.08375 1.6875 10.0625 C-1.24669631 10.11786219 -3.77993696 10.4555734 -6.625 11.125 C-5.965 10.795 -5.305 10.465 -4.625 10.125 C-3.49149466 8.10830173 -3.49149466 8.10830173 -2.625 6.125 C-1.965 6.125 -1.305 6.125 -0.625 6.125 C-0.295 4.805 0.035 3.485 0.375 2.125 C-2.595 4.6 -2.595 4.6 -5.625 7.125 C-4.53409091 0.21590909 -4.53409091 0.21590909 0 0 Z " fill="#BABABA" transform="translate(182.625,37.875)"/>
<path d="M0 0 C0.66 0 1.32 0 2 0 C1.67 2.31 1.34 4.62 1 7 C1.66 7 2.32 7 3 7 C3 7.99 3 8.98 3 10 C2.01 10 1.02 10 0 10 C-0.33 12.31 -0.66 14.62 -1 17 C-2.5625 15.875 -2.5625 15.875 -4 14 C-3.76814754 9.01517204 -1.82060672 4.5910952 0 0 Z " fill="#7844DE" transform="translate(88,21)"/>
<path d="M0 0 C1.2380014 3.57644848 0.74926071 6.33694766 0 10 C-0.66 10 -1.32 10 -2 10 C-2 10.66 -2 11.32 -2 12 C-3.98 12.33 -5.96 12.66 -8 13 C-6.46798474 9.55296566 -4.34730584 6.93413229 -2 4 C-1.29114106 2.68861096 -0.60543548 1.36222983 0 0 Z " fill="#7C7C7C" transform="translate(213,50)"/>
<path d="M0 0 C0.99 0.33 1.98 0.66 3 1 C-0.39866721 4.82350061 -4.43530459 7.71296575 -9 10 C-9.99 10 -10.98 10 -12 10 C-12 10.66 -12 11.32 -12 12 C-13.32 11.67 -14.64 11.34 -16 11 C-15.34 11 -14.68 11 -14 11 C-14 10.34 -14 9.68 -14 9 C-13.24074219 8.60167969 -12.48148438 8.20335937 -11.69921875 7.79296875 C-10.70535156 7.26316406 -9.71148437 6.73335937 -8.6875 6.1875 C-7.70136719 5.66542969 -6.71523437 5.14335938 -5.69921875 4.60546875 C-3.38334932 3.2280124 -1.76388999 2.00469409 0 0 Z " fill="#E9E9E9" transform="translate(204,44)"/>
<path d="M0 0 C0.33 1.32 0.66 2.64 1 4 C1.66 4 2.32 4 3 4 C4.26237731 6.52475462 4.09856404 8.31200466 4.0625 11.125 C4.05347656 12.03507812 4.04445313 12.94515625 4.03515625 13.8828125 C4.02355469 14.58148438 4.01195313 15.28015625 4 16 C3.34 16 2.68 16 2 16 C-0.27141454 10.60539047 -0.20413361 5.73842251 0 0 Z " fill="#5D1BDB" transform="translate(61,26)"/>
<path d="M0 0 C-2 2 -2 2 -5.6953125 2.1953125 C-7.17200108 2.182009 -8.64862358 2.15814835 -10.125 2.125 C-10.87910156 2.11597656 -11.63320312 2.10695312 -12.41015625 2.09765625 C-14.27357254 2.0740687 -16.13682593 2.03819719 -18 2 C-18 1.34 -18 0.68 -18 0 C-5.33029613 -1.33257403 -5.33029613 -1.33257403 0 0 Z " fill="#6529CE" transform="translate(136,49)"/>
<path d="M0 0 C2.33294775 -0.04241723 4.66702567 -0.04092937 7 0 C7.33 0.33 7.66 0.66 8 1 C7.71269945 3.33944736 7.38063221 5.6739143 7 8 C6.34 8 5.68 8 5 8 C5 6.68 5 5.36 5 4 C4.01 4.33 3.02 4.66 2 5 C1.34 4.34 0.68 3.68 0 3 C0 2.01 0 1.02 0 0 Z " fill="#676767" transform="translate(183,47)"/>
<path d="M0 0 C11.13196815 -0.3890785 11.13196815 -0.3890785 15 2 C17.3125 4.625 17.3125 4.625 19 7 C18.67 7.66 18.34 8.32 18 9 C17.67 8.01 17.34 7.02 17 6 C14.90280128 4.97718482 14.90280128 4.97718482 12.4375 4.3125 C11.61121094 4.06113281 10.78492188 3.80976563 9.93359375 3.55078125 C9.29550781 3.36902344 8.65742187 3.18726563 8 3 C8 2.34 8 1.68 8 1 C5.36 1 2.72 1 0 1 C0 0.67 0 0.34 0 0 Z " fill="#E3CBFC" transform="translate(119,23)"/>
<path d="M0 0 C0.66 0 1.32 0 2 0 C2 2.31 2 4.62 2 7 C1.01 7 0.02 7 -1 7 C-1.28875 7.639375 -1.5775 8.27875 -1.875 8.9375 C-3 11 -3 11 -5 12 C-3.06382979 3.06382979 -3.06382979 3.06382979 0 0 Z " fill="#626262" transform="translate(199,12)"/>
<path d="M0 0 C2 2 2 2 2.25 5.8125 C2.17480324 9.25275166 1.55549361 11.88901279 0 15 C-0.33 15 -0.66 15 -1 15 C-1.02703381 13.06257659 -1.04641125 11.12504521 -1.0625 9.1875 C-1.07410156 8.10855469 -1.08570313 7.02960937 -1.09765625 5.91796875 C-1 3 -1 3 0 0 Z " fill="#5D25C7" transform="translate(53,38)"/>
<path d="M0 0 C0.33 0 0.66 0 1 0 C1.34179688 2.97851562 1.34179688 2.97851562 1.68359375 5.95703125 C1.97170735 8.19396393 1.97170735 8.19396393 3 11 C0.69 11 -1.62 11 -4 11 C-4 10.34 -4 9.68 -4 9 C-3.34 9 -2.68 9 -2 9 C-1.34 6.03 -0.68 3.06 0 0 Z " fill="#5E27CC" transform="translate(51,57)"/>
<path d="M0 0 C0.66 0 1.32 0 2 0 C2.93423645 3.01031744 3.04449911 3.86650268 2 7 C1.34 7 0.68 7 0 7 C-0.33 6.34 -0.66 5.68 -1 5 C-2.65 6.65 -4.3 8.3 -6 10 C-4.52307692 4.33846154 -4.52307692 4.33846154 -1.875 2.625 C-0.946875 2.315625 -0.946875 2.315625 0 2 C0 1.34 0 0.68 0 0 Z " fill="#BFBFBF" transform="translate(198,40)"/>
<path d="M0 0 C0.66 0.33 1.32 0.66 2 1 C1.67 1.99 1.34 2.98 1 4 C-0.65 4 -2.3 4 -4 4 C-3.67 5.093125 -3.34 6.18625 -3 7.3125 C-2 11 -2 11 -2 14 C-6.06153846 8.70769231 -6.06153846 8.70769231 -5.75 5.125 C-5.5025 4.42375 -5.255 3.7225 -5 3 C-3.35 2.67 -1.7 2.34 0 2 C0 1.34 0 0.68 0 0 Z " fill="#DCDCDC" transform="translate(213,35)"/>
<path d="M0 0 C0.99 0.33 1.98 0.66 3 1 C3.33 4.63 3.66 8.26 4 12 C3.34 11.67 2.68 11.34 2 11 C1.375 8.4375 1.375 8.4375 1 6 C-0.32 6.33 -1.64 6.66 -3 7 C-3 6.34 -3 5.68 -3 5 C-2.01 5 -1.02 5 0 5 C0 3.35 0 1.7 0 0 Z " fill="#A585E6" transform="translate(68,54)"/>
<path d="M0 0 C1.32 0.33 2.64 0.66 4 1 C4 1.66 4 2.32 4 3 C4.66 3 5.32 3 6 3 C6.33 4.65 6.66 6.3 7 8 C5.68 8.33 4.36 8.66 3 9 C1.35173889 6.03312999 0.55728913 3.34373475 0 0 Z " fill="#5D1EDF" transform="translate(136,25)"/>
<path d="M0 0 C0.99 0 1.98 0 3 0 C2.43026084 3.9881741 1.16380338 6.62446673 -1 10 C-1.67725021 11.32798885 -2.34582296 12.66049463 -3 14 C-2.58846263 9.02906176 -2.20399168 4.55491614 0 0 Z " fill="#262626" transform="translate(196,19)"/>
<path d="M0 0 C0 0.99 0 1.98 0 3 C-6.0546875 3.9765625 -6.0546875 3.9765625 -8 4 C-8.66 3.34 -9.32 2.68 -10 2 C-6.49223216 0.39644899 -3.85645121 -0.22036864 0 0 Z " fill="#989898" transform="translate(183,54)"/>
<path d="M0 0 C0.66 0 1.32 0 2 0 C2.66 2.97 3.32 5.94 4 9 C3.34 8.67 2.68 8.34 2 8 C1.67 9.65 1.34 11.3 1 13 C0.67 13 0.34 13 0 13 C0 8.71 0 4.42 0 0 Z " fill="#713CD3" transform="translate(65,35)"/>
<path d="M0 0 C2.12508244 3.18762365 2.5020163 5.26512223 3 9 C1.68 9 0.36 9 -1 9 C-1.66 7.35 -2.32 5.7 -3 4 C-2.34 4 -1.68 4 -1 4 C-0.67 2.68 -0.34 1.36 0 0 Z " fill="#8155D6" transform="translate(41,21)"/>
<path d="M0 0 C0.66 0 1.32 0 2 0 C2 1.65 2 3.3 2 5 C2.66 5 3.32 5 4 5 C4 8.63 4 12.26 4 16 C3.67 16 3.34 16 3 16 C2.87625 14.783125 2.7525 13.56625 2.625 12.3125 C2.21109801 8.91730393 1.35124158 6.15289702 0 3 C0 2.01 0 1.02 0 0 Z " fill="#6328CE" transform="translate(92,43)"/>
<path d="M0 0 C1.2065625 0.0309375 1.2065625 0.0309375 2.4375 0.0625 C2.4375 0.7225 2.4375 1.3825 2.4375 2.0625 C1.2309375 2.43375 1.2309375 2.43375 0 2.8125 C-2.733581 3.78488859 -2.733581 3.78488859 -3.375 6.1875 C-3.4678125 7.115625 -3.4678125 7.115625 -3.5625 8.0625 C-4.5525 7.7325 -5.5425 7.4025 -6.5625 7.0625 C-3.14390756 0.07668067 -3.14390756 0.07668067 0 0 Z " fill="#4C4C4C" transform="translate(210.5625,34.9375)"/>
<path d="M0 0 C0.78375 0.04125 1.5675 0.0825 2.375 0.125 C2.045 2.435 1.715 4.745 1.375 7.125 C1.045 7.125 0.715 7.125 0.375 7.125 C0.375 5.475 0.375 3.825 0.375 2.125 C-2.595 4.6 -2.595 4.6 -5.625 7.125 C-4.53409091 0.21590909 -4.53409091 0.21590909 0 0 Z " fill="#DCDBDB" transform="translate(182.625,37.875)"/>
<path d="M0 0 C0.99 0.33 1.98 0.66 3 1 C3.33 2.65 3.66 4.3 4 6 C2.68 6.33 1.36 6.66 0 7 C-0.38133299 5.0085944 -0.71325582 3.00720923 -1 1 C-0.67 0.67 -0.34 0.34 0 0 Z " fill="#642ED6" transform="translate(72,61)"/>
<path d="M0 0 C0.33 0 0.66 0 1 0 C0.25 7.625 0.25 7.625 -2 11 C-2.95465783 8.83032311 -3.14401212 7.43671207 -2.3984375 5.17578125 C-1.64129615 3.4315257 -0.82390802 1.71372869 0 0 Z " fill="#5A22C2" transform="translate(85,33)"/>
<path d="M0 0 C4.62 0 9.24 0 14 0 C14 1.65 14 3.3 14 5 C13.67 4.34 13.34 3.68 13 3 C12.34 3 11.68 3 11 3 C11 2.34 11 1.68 11 1 C7.37 1 3.74 1 0 1 C0 0.67 0 0.34 0 0 Z " fill="#6831D5" transform="translate(27,22)"/>
<path d="M0 0 C1 2 1 2 0.44140625 4.1640625 C0.15136719 4.97617188 -0.13867188 5.78828125 -0.4375 6.625 C-0.72496094 7.44226563 -1.01242188 8.25953125 -1.30859375 9.1015625 C-1.53675781 9.72804688 -1.76492187 10.35453125 -2 11 C-4 10 -4 10 -5 7 C-4.34 6.67 -3.68 6.34 -3 6 C-3 5.34 -3 4.68 -3 4 C-2.34 4 -1.68 4 -1 4 C-0.67 2.68 -0.34 1.36 0 0 Z " fill="#F3F3F3" transform="translate(164,11)"/>
<path d="M0 0 C1.65 0 3.3 0 5 0 C5 0.99 5 1.98 5 3 C4.34 3 3.68 3 3 3 C2.34 4.32 1.68 5.64 1 7 C0.67 7 0.34 7 0 7 C0 4.69 0 2.38 0 0 Z " fill="#6329E4" transform="translate(55,22)"/>
<path d="M0 0 C0.66 0 1.32 0 2 0 C0.125 5.75 0.125 5.75 -1 8 C-2.65 8 -4.3 8 -6 8 C-5.38125 7.4225 -4.7625 6.845 -4.125 6.25 C-2.18652947 4.19750179 -1.09985751 2.56633418 0 0 Z " fill="#F1DFFD" transform="translate(78,61)"/>
<path d="M0 0 C1.32 0.66 2.64 1.32 4 2 C3.34 2 2.68 2 2 2 C2 2.66 2 3.32 2 4 C1.34 4 0.68 4 0 4 C-0.66 5.65 -1.32 7.3 -2 9 C-2.66 8.01 -3.32 7.02 -4 6 C-3.525625 5.566875 -3.05125 5.13375 -2.5625 4.6875 C-0.76313043 2.97690387 -0.76313043 2.97690387 0 0 Z " fill="#737373" transform="translate(220,38)"/>
<path d="M0 0 C0.99 0.33 1.98 0.66 3 1 C2.67 3.31 2.34 5.62 2 8 C1.67 7.34 1.34 6.68 1 6 C0.34 6 -0.32 6 -1 6 C-1.042721 4.33388095 -1.04063832 2.66617115 -1 1 C-0.67 0.67 -0.34 0.34 0 0 Z " fill="#5C16E8" transform="translate(90,22)"/>
<path d="M0 0 C0.66 0.33 1.32 0.66 2 1 C1.01 2.485 1.01 2.485 0 4 C-0.99 4 -1.98 4 -3 4 C-3 4.66 -3 5.32 -3 6 C-4.32 5.67 -5.64 5.34 -7 5 C-6.34 5 -5.68 5 -5 5 C-5 4.34 -5 3.68 -5 3 C-2.625 1.3125 -2.625 1.3125 0 0 Z " fill="#CBCBCB" transform="translate(195,50)"/>
<path d="M0 0 C2 2 2 2 2 5 C3.32 4.67 4.64 4.34 6 4 C5.67 5.32 5.34 6.64 5 8 C3.68 7.67 2.36 7.34 1 7 C0.67 4.69 0.34 2.38 0 0 Z " fill="#996DED" transform="translate(71,51)"/>
<path d="M0 0 C0.99 0.33 1.98 0.66 3 1 C4.6900877 4.80269732 5.19873962 7.05272168 4 11 C3.32880451 9.5437455 2.66318193 8.08492133 2 6.625 C1.62875 5.81289063 1.2575 5.00078125 0.875 4.1640625 C0 2 0 2 0 0 Z " fill="#D5BDF8" transform="translate(69,45)"/>
<path d="M0 0 C0.66 0 1.32 0 2 0 C2 1.98 2 3.96 2 6 C1.67 5.34 1.34 4.68 1 4 C-0.98 4.99 -0.98 4.99 -3 6 C-1.125 1.125 -1.125 1.125 0 0 Z " fill="#373737" transform="translate(181,40)"/>
<path d="M0 0 C1.134375 0.020625 2.26875 0.04125 3.4375 0.0625 C1.625 2.0625 1.625 2.0625 -0.5625 4.0625 C-1.5525 4.0625 -2.5425 4.0625 -3.5625 4.0625 C-3.8925 3.0725 -4.2225 2.0825 -4.5625 1.0625 C-3.5625 0.0625 -3.5625 0.0625 0 0 Z " fill="#FEFEFD" transform="translate(74.5625,33.9375)"/>
<path d="M0 0 C3 3 3 3 3.1875 5.6875 C3.0946875 6.8321875 3.0946875 6.8321875 3 8 C2.01 8.495 2.01 8.495 1 9 C0.67 6.03 0.34 3.06 0 0 Z " fill="#622AD4" transform="translate(66,46)"/>
<path d="M0 0 C1.32 0.33 2.64 0.66 4 1 C3.01 1.495 3.01 1.495 2 2 C1.34 1.34 0.68 0.68 0 0 Z " fill="#FEFEFD" transform="translate(103,22)"/>
<path d="M0 0 C0.33 0.66 0.66 1.32 1 2 C0.34 1.67 -0.32 1.34 -1 1 C-0.67 0.67 -0.34 0.34 0 0 Z " fill="#FDFDFB" transform="translate(148,60)"/>
<path d="M0 0 C0.66 0.66 1.32 1.32 2 2 C1.34 2 0.68 2 0 2 C0 1.34 0 0.68 0 0 Z " fill="#FCFEFC" transform="translate(127,28)"/>
<path d="M0 0 C3 1 3 1 3 1 Z " fill="#FEFEFE" transform="translate(171,9)"/>
<path d="M0 0 C2 1 2 1 2 1 Z " fill="#FDFDFD" transform="translate(170,38)"/>
<path d="M0 0 C2 1 2 1 2 1 Z " fill="#FFFFFF" transform="translate(100,22)"/>
<path d="" fill="#FFFFFF" transform="translate(0,0)"/>
<path d="" fill="#FFFFFF" transform="translate(0,0)"/>
<path d="" fill="#FFFFFF" transform="translate(0,0)"/>
<path d="" fill="#FFFFFF" transform="translate(0,0)"/>
<path d="" fill="#FEF0FE" transform="translate(0,0)"/>
<path d="" fill="#FFFFFF" transform="translate(0,0)"/>
</svg>
